<?xml version="1.0" encoding="UTF-8" standalone="no"?>
<!DOCTYPE svg  PUBLIC '-//W3C//DTD SVG 1.1//EN'  'http://www.w3.org/Graphics/SVG/1.1/DTD/svg11.dtd'>
<svg xmlns="http://www.w3.org/2000/svg">
<defs>
<font id="Hero-Light" horiz-adv-x="616">
<font-face underline-position="-50" font-weight="300" descent="-200" panose-1="2 0 5 6 0 0 0 2 0 4" units-per-em="1000" unicode-range="U+0020-2122" bbox="-24 -203 1145 823" x-height="509" underline-thickness="50" font-family="Hero" ascent="800" cap-height="643"/>
<missing-glyph horiz-adv-x="1000"/>
<glyph glyph-name=".notdef" horiz-adv-x="1000"/>
<glyph glyph-name=".null" horiz-adv-x="0"/>
<glyph glyph-name="nonmarkingreturn" horiz-adv-x="333"/>
<glyph glyph-name="space" horiz-adv-x="273" unicode=" "/>
<glyph glyph-name="space" horiz-adv-x="273" unicode=" "/>
<glyph glyph-name="exclam" horiz-adv-x="183" unicode="!" d="M92 12q0 -16 -18 -16q-17 0 -17 16v58q0 16 17 16q18 0 18 -16v-58zM92 627v-466q0 -17 -18 -17q-17 0 -17 17v466q0 15 17 15q18 0 18 -15z"/>
<glyph glyph-name="quotedbl" horiz-adv-x="254" unicode='&quot;' d="M167 624v-115q0 -8 -5 -12.5t-12 -4.5q-16 0 -16 17v115q0 16 16 16q17 0 17 -16zM75 624v-115q0 -8 -5 -12.5t-12 -4.5t-12 4.5t-5 12.5v115q0 16 17 16t17 -16z"/>
<glyph glyph-name="numbersign" horiz-adv-x="554" unicode="#" d="M182 395l-25 -142h178l24 142h-177zM80 13l35 205h-71q-7 0 -12.5 5t-5.5 13q0 7 5.5 12t12.5 5h77l25 142h-77q-18 0 -18 17q0 8 5.5 13t12.5 5h83l35 204q2 17 18 17q9 0 13.5 -6.5t3.5 -15.5l-34 -199h177l35 204q3 17 19 17q7 0 12 -5t5 -12q0 -1 -0.5 -2.5 t-0.5 -2.5l-34 -199h73q7 0 12.5 -5t5.5 -12q0 -18 -18 -18h-79l-25 -142h79q18 0 18 -17q0 -18 -18 -18h-85l-35 -211q-4 -16 -19 -16q-7 0 -12 5t-5 12q0 1 0.5 2.5t0.5 2.5l35 205h-178l-36 -211q-1 -16 -18 -16q-9 0 -13.5 6.5t-3.5 15.5z"/>
<glyph glyph-name="dollar" horiz-adv-x="699" unicode="$" d="M344 301v-284q40 1 78.5 9t75.5 25t60 48.5t23 73.5q0 22 -7 40t-18 30t-30.5 21.5t-36.5 15t-45 10t-48 6.5t-52 5zM316 333v271h-18q-65 -5 -123.5 -31t-76.5 -78q-6 -17 -6 -34q0 -30 13 -51.5t31.5 -34.5t51 -22t59 -12.5t69.5 -7.5zM46 130q-1 2 -1 6q0 15 16 15 q11 0 15 -12q8 -29 31.5 -52t54.5 -36.5t61.5 -21t61.5 -10.5q20 -2 31 -2v286q-48 4 -77.5 8t-67.5 15t-59.5 26.5t-37 44t-15.5 66.5q0 66 53 107t126 56q39 9 78 9v58q0 15 14 15t14 -15v-58q204 -9 247 -125q2 -6 2 -8q0 -15 -15 -15q-11 0 -16 11q-35 102 -218 106 v-274q38 -3 58 -5t53.5 -7.5t52 -12t42 -18t35.5 -26.5t20.5 -37t8.5 -50q0 -51 -25 -88.5t-66.5 -57.5t-86 -30t-92.5 -11v-59q0 -14 -14 -14t-14 14v60q-42 1 -81.5 8.5t-79.5 23t-69 44t-40 66.5z"/>
<glyph glyph-name="percent" horiz-adv-x="640" unicode="%" d="M545 139q0 42 -27.5 74t-70.5 32q-42 0 -71 -31.5t-29 -74.5q0 -42 27.5 -76t72.5 -34q43 0 69.5 30.5t28.5 79.5zM447 277q54 0 91.5 -39.5t37.5 -98.5q0 -55 -36 -98.5t-93 -43.5q-55 0 -92 39.5t-37 102.5q0 55 36 96.5t93 41.5zM277 508q0 42 -27.5 74t-70.5 32 q-42 0 -71 -31.5t-29 -74.5q0 -42 27.5 -76t72.5 -34q43 0 69.5 30.5t28.5 79.5zM179 646q54 0 91.5 -39.5t37.5 -98.5q0 -55 -36 -98.5t-93 -43.5q-55 0 -92 39.5t-37 102.5q0 55 36 96.5t93 41.5zM546 636l-449 -635q-4 -7 -13 -7q-7 0 -12 4.5t-5 11.5q0 6 4 11l449 635 q6 7 13 7t12 -4.5t5 -11.5q0 -3 -4 -11z"/>
<glyph glyph-name="ampersand" horiz-adv-x="648" unicode="&amp;" d="M503 303h-215q-47 0 -83 -5t-70 -18t-52.5 -40.5t-18.5 -68.5q0 -43 21.5 -76t56 -50.5t71.5 -26t75 -8.5t73.5 8t68.5 25t53 50t20 78v132zM287 -18q-48 0 -89.5 9.5t-79.5 30t-60 59.5t-22 92q0 60 37.5 98t99.5 48q-54 13 -88 52.5t-34 96.5q0 45 21.5 80t57 55.5 t76 30.5t83.5 10q44 0 84.5 -10t76 -30t56.5 -55t21 -80q0 -17 -14 -17q-16 0 -16 14q0 70 -61.5 109t-146.5 39t-146.5 -39t-61.5 -109q0 -133 207 -133h310q13 0 13 -15t-13 -15h-66v-131q0 -53 -20.5 -91t-56.5 -59t-77.5 -30.5t-90.5 -9.5z"/>
<glyph glyph-name="quotesingle" horiz-adv-x="208" unicode="&apos;" d="M90 624v-115q0 -17 -16 -17q-7 0 -12 4.5t-5 12.5v115q0 16 17 16q16 0 16 -16z"/>
<glyph glyph-name="parenleft" horiz-adv-x="272" unicode="(" d="M216 634q-68 -58 -104 -149.5t-36 -193.5t35.5 -192.5t103.5 -148.5q8 -6 8 -16q0 -7 -5 -12q-7 -5 -12 -5q-7 0 -13 6q-74 64 -113 161.5t-39 205.5q0 109 39 207.5t113 162.5q5 5 12 5t12.5 -5.5t5.5 -12.5t-7 -13z"/>
<glyph glyph-name="parenright" horiz-adv-x="271" unicode=")" d="M25 628q-7 7 -7 16q0 7 5 12q7 5 12 5q7 0 13 -6q74 -64 113 -161.5t39 -205.5q0 -109 -39 -207.5t-113 -162.5q-6 -6 -13 -6q-5 0 -12 5q-5 5 -5 12q0 10 8 16q68 58 103.5 147.5t35.5 190.5q0 102 -36 194t-104 151z"/>
<glyph glyph-name="asterisk" horiz-adv-x="324" unicode="*" d="M218 465l-66 45l2 -82q0 -16 -16 -16q-15 0 -15 16l3 82l-69 -45q-6 -2 -8 -2q-7 0 -11.5 5t-4.5 11q0 9 8 14l68 37l-68 38q-8 6 -8 14q0 16 15 16q6 0 9 -2l69 -45l-4 82q0 15 16 15t16 -15l-3 -81l67 44q6 2 8 2q7 0 12 -5t5 -12t-8 -13l-68 -38l68 -37q7 -6 7 -14 q0 -6 -4.5 -11t-11.5 -5q-2 0 -8 2z"/>
<glyph glyph-name="plus" horiz-adv-x="567" unicode="+" d="M282 494v-183h182q18 0 18 -17t-18 -17h-182v-182q0 -18 -17 -18t-17 18v182h-183q-7 0 -12 5t-5 12q0 17 17 17h183v183q0 17 17 17q7 0 12 -5t5 -12z"/>
<glyph glyph-name="comma" horiz-adv-x="147" unicode="," d="M95 7l-48 -102q-4 -9 -14 -9q-6 0 -11.5 4.5t-5.5 10.5q0 2 2 8l45 101q7 15 19 15q16 0 16 -17q0 -5 -3 -11z"/>
<glyph glyph-name="hyphen" horiz-adv-x="411" unicode="-" d="M295 283h-218q-19 0 -19 17q0 7 5 12.5t14 5.5h218q18 0 18 -18q0 -17 -18 -17z"/>
<glyph glyph-name="period" horiz-adv-x="141" unicode="." d="M58 50q11 0 18 -7.5t7 -18.5q0 -25 -25 -25q-11 0 -18.5 7t-7.5 18t7.5 18.5t18.5 7.5z"/>
<glyph glyph-name="slash" horiz-adv-x="373" unicode="/" d="M6 -81l309 727q6 13 18 13q7 0 12 -5t5 -12q0 -6 -2 -9l-311 -728q-6 -13 -17 -13q-6 0 -11 5t-5 12q0 4 2 10z"/>
<glyph glyph-name="zero" horiz-adv-x="536" unicode="0" d="M39 410q0 110 68 171t161 61t161 -61.5t68 -171.5v-2v-180v-2q0 -111 -68 -172.5t-161 -61.5t-161 61.5t-68 171.5v3v183zM465 409q0 96 -58.5 149.5t-138.5 53.5t-139 -53.5t-59 -149.5v-2v-180v-2q0 -96 59 -149.5t139 -53.5t138.5 53.5t58.5 149.5v2v182z"/>
<glyph glyph-name="one" horiz-adv-x="323" unicode="1" d="M68 425l156 213q7 9 17 9q4 0 6 -1q15 -4 15 -19v-626q0 -17 -16 -17t-16 17v596l-136 -189q-6 -9 -15 -9q-6 0 -10.5 4.5t-4.5 10.5t4 11z"/>
<glyph glyph-name="two" horiz-adv-x="568" unicode="2" d="M169 74l-73 -46l88 4h315q18 0 18 -16q0 -15 -18 -15h-423q-14 0 -19 14q0 1 -0.5 2.5t-0.5 2.5q0 11 9 17q35 26 147 107.5t172 126.5q87 63 87 157q0 9 -2 29q-9 73 -59.5 111t-125.5 38q-76 0 -126.5 -38t-60.5 -111q-2 -16 -2 -27q0 -12 -15 -12t-15 12t2 32 q12 86 71 131.5t147 45.5q85 0 144.5 -46.5t71.5 -130.5q3 -18 3 -36q0 -103 -98 -176z"/>
<glyph glyph-name="three" horiz-adv-x="567" unicode="3" d="M81 183q10 -81 64 -118.5t138 -37.5q74 0 125 41t61 115q2 18 2 28q0 54 -27 99.5t-76 66.5q-28 12 -61 12q-34 0 -65 -14q-4 -3 -10 -3q-7 0 -12.5 5.5t-5.5 12.5q0 10 6 15l218 201h-353q-17 0 -17 16t17 16h383q9 0 14.5 -6t5.5 -15q0 -11 -8 -16l-140 -130l-74 -60 q23 8 55 8q34 0 61 -10q58 -23 89 -75t31 -117q0 -20 -3 -41q-12 -84 -71 -132t-145 -48q-208 0 -233 180q-2 22 -2 32q0 14 16 14q15 0 15 -14q0 -17 2 -25z"/>
<glyph glyph-name="four" horiz-adv-x="512" unicode="4" d="M436 183v442q0 15 15 15q6 0 10.5 -4.5t4.5 -10.5v-609q0 -17 -15 -17q-6 0 -10.5 4.5t-4.5 11.5v138h-380q-29 0 -29 23q0 8 6 18l261 444q5 8 14 8q16 0 16 -15q0 -5 -3 -9l-262 -439h377z"/>
<glyph glyph-name="five" horiz-adv-x="561" unicode="5" d="M76 183q20 -152 195 -152q92 0 144 55t52 130t-52.5 129t-148.5 54h-195q-16 0 -16 15v200q0 25 25 25h342q16 0 16 -16q0 -6 -4.5 -10.5t-11.5 -4.5h-336v-178h180q110 0 170 -62.5t60 -149.5t-60 -152t-164 -65q-202 0 -226 175q-3 16 -3 32q0 14 16 14q15 0 15 -14 q0 -9 2 -25z"/>
<glyph glyph-name="six" horiz-adv-x="562" unicode="6" d="M170 50q50 -30 111 -30q82 0 142 55t60 143q0 78 -55.5 133.5t-135.5 55.5q-79 0 -139 -50.5t-61 -126.5l-1 -37q0 -43 21 -82t58 -61zM90 376v-61q24 56 81 89.5t119 33.5q95 0 161.5 -63t66.5 -160q0 -100 -71.5 -163.5t-166.5 -63.5q-68 0 -125 35q-45 27 -71 72 t-26 97v188q0 80 21.5 134t82.5 92q58 38 134 38q16 0 24 -1q89 -8 152 -69q5 -5 5 -12q0 -6 -4.5 -10.5t-11.5 -4.5t-13 6q-63 61 -154 61q-60 0 -107 -28q-59 -34 -78 -84t-19 -126z"/>
<glyph glyph-name="seven" horiz-adv-x="529" unicode="7" d="M103 20l334 585h-368q-18 0 -18 16t18 16h382q28 0 28 -19q0 -9 -7 -19l-339 -596q-5 -8 -16 -8q-6 0 -11 5t-5 11q0 5 2 9z"/>
<glyph glyph-name="eight" horiz-adv-x="599" unicode="8" d="M296 333q210 0 210 137q0 21 -5 36q-16 54 -73.5 84t-130.5 30t-130.5 -30t-73.5 -84q-6 -14 -6 -36q0 -137 209 -137zM297 309q-226 0 -226 -137q0 -57 38 -95.5t86.5 -52.5t101.5 -14t101 13t86.5 51.5t38.5 97.5q0 137 -226 137zM296 -17q-48 0 -90.5 9.5t-81 30 t-61 59.5t-22.5 92q0 61 38.5 99.5t101.5 48.5q-55 14 -89 53.5t-34 96.5q0 40 18 74q28 54 90 78.5t132 24.5q69 0 130 -24.5t89 -78.5q19 -36 19 -74q0 -60 -33 -97.5t-91 -51.5q63 -9 102 -49.5t39 -100.5q0 -69 -40 -113.5t-94.5 -60.5t-122.5 -16z"/>
<glyph glyph-name="nine" horiz-adv-x="559" unicode="9" d="M391 583q-50 30 -111 30q-83 0 -144 -55t-61 -144q0 -78 57.5 -133t136.5 -55q80 0 139 50.5t61 126.5l1 36q0 44 -21 82.5t-58 61.5zM471 255v62q-24 -55 -81 -88.5t-120 -33.5q-94 0 -159.5 62t-66.5 157q-1 102 69.5 166t166.5 64q69 0 126 -35q45 -27 70.5 -72 t25.5 -97v-187q0 -80 -21.5 -134.5t-82.5 -92.5q-58 -37 -134 -37q-113 0 -187 71q-5 5 -5 12q0 16 16 16q7 0 13 -6q63 -63 164 -63q63 0 110 28q58 34 77 83.5t19 124.5z"/>
<glyph glyph-name="colon" horiz-adv-x="143" unicode=":" d="M55 502q11 0 18.5 -7.5t7.5 -18.5t-7.5 -18t-18.5 -7q-25 0 -25 25q0 11 7 18.5t18 7.5zM55 56q11 0 18.5 -7.5t7.5 -18.5t-7.5 -18.5t-18.5 -7.5t-18 7.5t-7 18.5t7 18.5t18 7.5z"/>
<glyph glyph-name="semicolon" horiz-adv-x="155" unicode=";" d="M32 -85q-4 -9 -14 -9q-6 0 -11.5 4.5t-5.5 10.5q0 2 2 8l44 101q7 15 19 15q7 0 12 -5t5 -12q0 -5 -3 -11zM68 502q11 0 18.5 -7.5t7.5 -18.5t-7.5 -18t-18.5 -7q-25 0 -25 25q0 11 7 18.5t18 7.5z"/>
<glyph glyph-name="less" horiz-adv-x="317" unicode="&lt;" d="M243 488l-182 -173l181 -172q7 -7 7 -14q0 -17 -18 -17q-7 0 -13 6l-186 180q-8 7 -8 17t10 20l186 179q5 5 11 5q18 0 18 -18q0 -5 -6 -13z"/>
<glyph glyph-name="equal" horiz-adv-x="526" unicode="=" d="M64 294h337q7 0 12 -4.5t5 -11.5t-5 -12t-12 -5h-337q-7 0 -11.5 5t-4.5 12q0 16 16 16zM401 407h-337q-7 0 -11.5 5t-4.5 12t4.5 12t11.5 5h337q7 0 12 -5t5 -12t-5 -12t-12 -5z"/>
<glyph glyph-name="greater" horiz-adv-x="353" unicode="&gt;" d="M235 317l-179 173q-6 8 -6 13q0 18 18 18q6 0 11 -5l186 -179q10 -10 10 -20t-8 -17l-186 -180q-6 -6 -13 -6q-18 0 -18 17q0 7 7 14z"/>
<glyph glyph-name="question" horiz-adv-x="621" unicode="?" d="M278 61v-55q0 -16 -16 -16q-6 0 -11.5 4.5t-5.5 11.5v55q0 7 5.5 11.5t11.5 4.5q16 0 16 -16zM523 455q0 44 -23.5 76t-62 48.5t-78 24t-80.5 7.5q-190 0 -230 -113q-4 -11 -15 -11q-15 0 -15 15q0 5 1 8q13 40 41.5 68t66.5 42t75 20t77 6q63 0 123.5 -17.5t107.5 -63 t47 -110.5v-4q-1 -45 -22.5 -78.5t-52.5 -50.5t-67 -33.5t-66.5 -29t-51 -36.5t-20.5 -56v-41q0 -15 -16 -15q-17 0 -17 15v42q0 46 28.5 76t69.5 47l82 34t69.5 49.5t28.5 80.5z"/>
<glyph glyph-name="at" horiz-adv-x="812" unicode="@" d="M555 172v84q0 27 -11 55q-20 51 -66 79t-101 28q-69 0 -120 -41q-79 -63 -79 -162v-7q2 -82 61 -140.5t137 -58.5q44 0 84 20q62 30 84 88q11 28 11 55zM555 56v35q-17 -53 -77 -86q-50 -28 -104 -28q-90 0 -158.5 68t-69.5 164v6q0 118 96 190q53 40 130 40 q60 0 110.5 -27t72.5 -77v85q0 16 16 16t16 -16v-370q0 -19 10.5 -31.5t29.5 -12.5q44 0 72 100q13 48 13 104q0 134 -96 230q-95 95 -230 95t-230.5 -95t-95.5 -230q0 -80 36 -150.5t102 -116.5q85 -59 188 -59q54 0 107 18q1 0 2 0.5t2 0.5q6 0 10.5 -5.5t4.5 -11.5 q0 -9 -10 -13q-56 -19 -116 -19q-113 0 -205 65q-72 50 -111.5 126.5t-39.5 164.5q0 147 104 251t252 104q147 0 251 -104t104 -251q0 -62 -14 -112q-34 -122 -100 -122q-31 0 -51.5 21.5t-20.5 52.5z"/>
<glyph glyph-name="A" horiz-adv-x="697" unicode="A" d="M562 179h-430l-89 -177q-5 -9 -14 -9q-7 0 -12 5t-5 12q0 2 2 8l318 627q4 9 15 9q9 0 14 -9l319 -627q2 -6 2 -8q0 -7 -5 -12t-12 -5q-9 0 -14 9zM546 209l-199 396l-200 -396h399z"/>
<glyph glyph-name="B" horiz-adv-x="687" unicode="B" d="M365 318h-239v-288h260q219 0 219 151q0 70 -51.5 103.5t-135.5 33.5h-53zM352 606h-226v-256h239q192 0 192 122q0 38 -21.5 66t-56 41.5t-66 20t-61.5 6.5zM640 181q0 -51 -22 -88t-59.5 -56.5t-80 -28t-92.5 -8.5h-276q-8 0 -13 5t-5 13v600q0 8 5 13t13 5h242 q29 0 58 -4t63 -15t59.5 -28.5t42.5 -47.5t17 -69q0 -48 -26 -82t-74 -49q67 -14 107.5 -54t40.5 -106z"/>
<glyph glyph-name="C" horiz-adv-x="667" unicode="C" d="M632 113q-39 -55 -106 -88q-74 -37 -150 -37q-131 0 -227 95t-96 234v11q3 126 77 212.5t192 105.5q38 5 67 5q137 0 231 -101q5 -7 5 -12q0 -6 -5 -10t-11 -4q-7 0 -13 6q-81 88 -197 88q-30 0 -72 -5q-108 -17 -173.5 -92t-68.5 -194v-8q0 -125 87 -211t206 -86 q68 0 134 33q56 28 94 77q5 8 14 8q6 0 11 -4.5t5 -11.5q0 -6 -4 -11z"/>
<glyph glyph-name="D" horiz-adv-x="657" unicode="D" d="M312 0h-232q-11 0 -19 7.5t-8 18.5v585q0 10 8 17.5t19 7.5h232q94 0 162.5 -47t100 -118t31.5 -153t-31.5 -153t-100 -118t-162.5 -47zM86 606v-575h226q123 0 192 85t69 202t-69 202.5t-192 85.5h-226z"/>
<glyph glyph-name="E" horiz-adv-x="639" unicode="E" d="M125 300v-268h442q16 0 16 -16t-16 -16h-448q-12 0 -19.5 8t-7.5 19v583q0 11 7.5 18.5t19.5 7.5h449q15 0 15 -15t-16 -15h-442v-276h422q16 0 16 -15t-16 -15h-422z"/>
<glyph glyph-name="F" horiz-adv-x="617" unicode="F" d="M94 9v601q0 11 7.5 18.5t17.5 7.5h437q16 0 16 -15t-16 -15h-430v-303h410q7 0 11.5 -4.5t4.5 -10.5q0 -14 -16 -14h-410v-264q0 -17 -16 -17t-16 16z"/>
<glyph glyph-name="G" horiz-adv-x="705" unicode="G" d="M616 110q-43 -57 -110 -88.5t-140 -31.5h-3q-128 2 -221 95t-93 229v9q4 118 77.5 210.5t187.5 110.5q23 4 52 4q67 0 130 -24t104 -69q5 -5 5 -13q0 -16 -16 -16q-7 0 -13 6q-36 41 -92 62t-116 21q-17 0 -49 -4q-102 -16 -168 -99.5t-70 -189.5v-7q0 -121 83.5 -205.5 t199.5 -86.5h3q67 0 128.5 29t97.5 81v167h-213q-14 0 -14 15t14 15h225q18 0 18 -19v-178q0 -16 -7 -23z"/>
<glyph glyph-name="H" horiz-adv-x="683" unicode="H" d="M123 618v-298h434v298q0 8 5.5 13.5t11.5 5.5t11.5 -5.5t5.5 -13.5v-602q0 -17 -17 -17t-17 17v274l-434 1v-275q0 -17 -17 -17q-16 0 -16 17v602q0 19 16 19q6 0 11.5 -5.5t5.5 -13.5z"/>
<glyph glyph-name="I" horiz-adv-x="220" unicode="I" d="M92 17v607q0 9 5.5 14t12.5 5t12.5 -5t5.5 -14v-607q0 -17 -18 -17t-18 17z"/>
<glyph glyph-name="J" horiz-adv-x="579" unicode="J" d="M458 215v389h-226q-17 0 -17 16q0 17 17 17h240q14 0 16 -17v-405q1 -96 -75.5 -162.5t-176.5 -66.5q-69 0 -127 35q-46 28 -73.5 73.5t-29.5 96.5q0 7 5.5 12t12.5 5q16 0 16 -17q2 -43 25 -81.5t60 -60.5q50 -30 111 -30q88 0 155.5 57t66.5 139z"/>
<glyph glyph-name="K" horiz-adv-x="627" unicode="K" d="M125 252l429 387q7 5 12 5q8 0 13.5 -5t5.5 -12t-5 -11l-298 -264l315 -329q6 -6 6 -12q0 -7 -5.5 -11.5t-12.5 -4.5q-6 0 -12 6l-315 330l-133 -118v-201q0 -16 -17 -16q-7 0 -12 4.5t-5 11.5v614q0 7 5 12t12 5t12 -5t5 -12v-374z"/>
<glyph glyph-name="L" horiz-adv-x="576" unicode="L" d="M547 0h-436q-18 0 -18 19v605q0 8 5.5 13.5t11.5 5.5t11.5 -5.5t5.5 -13.5v-593h420q17 0 17 -15q0 -16 -17 -16z"/>
<glyph glyph-name="M" horiz-adv-x="802" unicode="M" d="M402 196l276 433q7 10 17 10q16 0 16 -18v-605q0 -18 -17 -18t-17 18v551l-258 -405q-5 -11 -17 -11t-18 11l-258 403v-549q0 -18 -17 -18t-17 18v605q0 18 16 18q10 0 16 -10z"/>
<glyph glyph-name="N" horiz-adv-x="687" unicode="N" d="M560 62v560q0 8 5 13.5t12 5.5t12 -5.5t5 -13.5v-602q0 -19 -15 -19q-11 0 -20 11l-435 567v-561q0 -18 -16 -18q-17 0 -17 18v601q0 21 16 21q11 0 19 -11z"/>
<glyph glyph-name="O" horiz-adv-x="745" unicode="O" d="M317 614q-103 -16 -164.5 -96.5t-64.5 -189.5v-9q0 -125 84.5 -212.5t199.5 -87.5q116 0 200.5 87.5t84.5 212.5v9q-3 107 -70 188.5t-172 97.5q-32 4 -49 4t-49 -4zM372 -12q-129 0 -223.5 96.5t-94.5 235.5v9q4 120 73.5 209.5t184.5 107.5q36 4 54 4t54 -4 q117 -18 192 -108.5t78 -208.5v-11q0 -139 -94 -234.5t-224 -95.5z"/>
<glyph glyph-name="P" horiz-adv-x="640" unicode="P" d="M337 198h-212v-184q0 -8 -5 -12.5t-12 -4.5q-16 0 -16 16v607q0 7 5 12t12 5h227q120 0 187.5 -67.5t67.5 -159.5t-65.5 -152t-188.5 -60zM125 606v-377h212q110 0 166 53.5t54 127.5q-1 78 -61.5 137t-158.5 59h-212z"/>
<glyph glyph-name="Q" horiz-adv-x="753" unicode="Q" d="M510 195l73 -75q72 87 72 200v8q-3 107 -70 188.5t-172 97.5q-32 4 -48 4q-17 0 -49 -4q-103 -16 -165 -97t-65 -189v-9q0 -125 84.5 -212.5t200.5 -87.5q109 0 191 79l-74 76q-6 6 -6 12t4.5 11t10.5 5q7 0 13 -7zM656 -2l-72 75q-88 -85 -213 -85q-130 0 -224 95.5 t-94 234.5v11q4 120 73.5 209.5t184.5 107.5q36 4 54 4t54 -4q117 -18 191.5 -108.5t77.5 -208.5v-12q0 -129 -82 -221l72 -75q6 -6 6 -13q0 -6 -4.5 -11t-10.5 -5q-7 0 -13 6z"/>
<glyph glyph-name="R" horiz-adv-x="657" unicode="R" d="M359 235h-234v-221q0 -8 -5 -12.5t-12 -4.5q-16 0 -16 16v607q0 17 17 17h252q122 0 188.5 -59.5t66.5 -148.5q0 -83 -55.5 -135t-162.5 -60l207 -213q6 -6 6 -13q0 -6 -4.5 -11t-10.5 -5t-12 6zM125 606v-342h237q111 0 166.5 46t53.5 119q-1 76 -60.5 126.5 t-159.5 50.5h-237z"/>
<glyph glyph-name="S" horiz-adv-x="646" unicode="S" d="M34 134q-1 2 -1 5q0 15 16 15q12 0 15 -12q11 -39 49.5 -66.5t79 -39t83.5 -15.5q22 -3 47 -3q41 0 81.5 7.5t80.5 24.5t65 49.5t25 76.5q0 46 -29 74t-75.5 38t-103 14.5t-113 10.5t-103 19.5t-75.5 47.5t-29 89q0 68 53 109t128 57q43 8 84 8q91 0 168.5 -28t103.5 -98 q2 -6 2 -9q0 -14 -14 -14q-12 0 -16 12q-39 107 -243 107q-4 0 -12 -0.5t-12 -0.5q-66 -5 -125 -31.5t-77 -78.5q-7 -14 -7 -34q0 -46 29 -74t75.5 -38.5t103 -15.5t113 -11t103 -19.5t75.5 -46.5t29 -86q0 -52 -27 -90.5t-71 -58.5t-90.5 -29t-96.5 -9q-43 0 -84.5 6.5 t-85 21.5t-76 45t-43.5 71z"/>
<glyph glyph-name="T" horiz-adv-x="589" unicode="T" d="M16 637h551q18 0 18 -15t-18 -15h-259l1 -592q0 -9 -5.5 -14t-12.5 -5q-17 0 -17 19v592h-258q-18 0 -18 15t18 15z"/>
<glyph glyph-name="U" horiz-adv-x="759" unicode="U" d="M636 280v348q0 8 5 12.5t12 4.5q16 0 16 -16v-349q0 -135 -86 -210.5t-203 -75.5t-202.5 75.5t-85.5 210.5v349q0 16 16 16t16 -17v-348q0 -120 76 -187t180 -67t180 67t76 187z"/>
<glyph glyph-name="V" horiz-adv-x="684" unicode="V" d="M330 2l-310 614q-2 4 -2 7q0 7 6 12t13 5q11 0 17 -12l291 -577l285 576q4 12 18 12q16 0 16 -15q0 -3 -2 -9l-303 -612q-5 -10 -14 -10t-15 9z"/>
<glyph glyph-name="W" horiz-adv-x="1170" unicode="W" d="M59 637l257 -586l252 510q5 11 18 11q11 0 17 -10l252 -511l256 586q4 11 16 11q7 0 12.5 -5t5.5 -12q0 -1 -2 -7q-17 -39 -118.5 -268t-154.5 -352q-4 -10 -15 -10t-17 10l-253 516l-253 -516q-4 -10 -16 -10t-16 10q-35 81 -272 620q-2 6 -2 7q0 7 5.5 12t12.5 5 q11 0 15 -11z"/>
<glyph glyph-name="X" horiz-adv-x="642" unicode="X" d="M68 638l253 -291l252 291q6 7 14 7q6 0 11 -4.5t5 -11.5q0 -5 -5 -12l-257 -292l265 -302q5 -6 5 -14q0 -15 -14 -15q-9 0 -16 8l-260 301l-261 -301q-7 -8 -16 -8q-6 0 -10.5 4.5t-4.5 10.5t6 14l264 302l-255 293q-5 5 -5 12q0 6 4.5 10.5t10.5 4.5q8 0 14 -7z"/>
<glyph glyph-name="Y" horiz-adv-x="617" unicode="Y" d="M291 15v244l-269 358q-6 7 -6 14q0 14 15 14q9 0 16 -8l261 -350l260 350q7 8 16 8q15 0 15 -14q0 -7 -6 -14l-268 -358v-244q0 -19 -17 -19t-17 19z"/>
<glyph glyph-name="Z" horiz-adv-x="614" unicode="Z" d="M585 606l-500 -573h491q17 0 17 -16q0 -17 -17 -17h-525q-20 0 -20 15q0 7 6 15l504 575h-475q-7 0 -11.5 5t-4.5 12q0 6 4.5 10.5t11.5 4.5h506q19 0 19 -15q0 -8 -6 -16z"/>
<glyph glyph-name="bracketleft" horiz-adv-x="271" unicode="[" d="M215 662h-99v-740h99q18 0 18 -16t-18 -16h-112q-10 0 -16.5 6.5t-6.5 16.5v760q0 10 6.5 16.5t16.5 6.5h112q18 0 18 -18q0 -16 -18 -16z"/>
<glyph glyph-name="backslash" horiz-adv-x="355" unicode="\" d="M34 646l304 -719q2 -4 2 -10q0 -8 -5 -14t-12 -6q-13 0 -18 15l-304 721q-3 6 -3 11q0 7 5 12t12 5q13 0 19 -15z"/>
<glyph glyph-name="bracketright" horiz-adv-x="299" unicode="]" d="M150 667h-100q-18 0 -18 16t18 16h113q9 0 16 -6.5t7 -16.5v-764q0 -10 -7 -16.5t-16 -6.5h-113q-18 0 -18 17q0 16 18 16h100v745z"/>
<glyph glyph-name="asciicircum" horiz-adv-x="385" unicode="^" d="M200 679l109 -136q4 -5 4 -11q0 -15 -15 -15q-9 0 -14 8l-105 129l-102 -130q-8 -9 -16 -9q-16 0 -16 15q0 5 5 13l109 136q8 11 21 11q12 0 20 -11z"/>
<glyph glyph-name="underscore" horiz-adv-x="434" unicode="_" d="M392 -64h-372q-19 0 -19 16q0 17 19 17h372q19 0 19 -16q0 -17 -19 -17z"/>
<glyph glyph-name="grave" horiz-adv-x="327" unicode="`" d="M134 727l77 -96q2 -2 2 -8q0 -15 -14 -15q-6 0 -12 7l-82 90q-4 5 -4 12t5.5 12t13.5 5t14 -7z"/>
<glyph glyph-name="a" d="M396 44q98 47 104 165v87q-6 118 -104 165q-41 18 -89 20h-3q-65 0 -121 -33.5t-81 -93.5q-16 -39 -18 -87v-12q0 -118 88 -188q52 -40 123 -45h6q46 0 95 22zM201 497q45 19 98 19h8q68 -2 120 -32q51 -34 73 -93v101q0 18 17 18q18 0 18 -18v-479q0 -18 -18 -18 q-17 0 -17 18v101q-22 -59 -73 -93q-57 -34 -124 -34q-50 0 -95 19q-77 32 -118 98t-41 153v9q2 78 42 141t110 90z" unicode="a"/>
<glyph glyph-name="b" horiz-adv-x="618" unicode="b" d="M220 44q49 -22 95 -22h6q71 5 123 45q88 70 88 188v12q-2 48 -18 87q-25 60 -81 93.5t-121 33.5h-3q-83 -3 -135.5 -54.5t-57.5 -130.5v-87q6 -118 104 -165zM415 497q70 -27 110 -90t42 -141v-9q0 -87 -41 -153t-118 -98q-45 -19 -95 -19q-67 0 -124 34q-53 35 -73 89 v-99q0 -18 -17 -18q-18 0 -18 18v625q0 18 18 18q17 0 17 -18v-240q24 57 76 87.5t117 32.5h8q53 0 98 -19z"/>
<glyph glyph-name="c" horiz-adv-x="531" unicode="c" d="M460 408q-64 75 -160 75q-32 0 -63 -7q-70 -19 -111.5 -83t-41.5 -141q0 -86 50 -148q62 -77 170 -77q106 0 165 77q6 6 12 7q15 1 20 -15q0 -10 -4 -14q-71 -89 -194 -89q-57 0 -109 23t-87 66q-59 71 -59 171q0 3 0.5 9t0.5 10q5 86 52.5 149.5t126.5 84.5q42 9 80 9 q106 0 179 -84q4 -5 4 -10q2 -17 -15 -19q-10 -1 -16 6z"/>
<glyph glyph-name="d" horiz-adv-x="617" unicode="d" d="M398 44q98 47 104 165v87q-6 118 -104 165q-41 18 -89 20h-3q-65 0 -121 -33.5t-81 -93.5q-16 -39 -18 -87v-12q0 -118 88 -188q52 -40 123 -45h6q46 0 95 22zM203 497q45 19 98 19h8q68 -2 120 -32q53 -35 73 -89v241q0 18 17 18q18 0 18 -18v-623q0 -18 -18 -18 q-17 0 -17 18v99q-21 -56 -73 -91q-57 -34 -124 -34q-50 0 -95 19q-77 32 -118 98t-41 153v9q2 78 42 141t110 90z"/>
<glyph glyph-name="e" horiz-adv-x="619" unicode="e" d="M245 475q-73 -20 -115.5 -81t-43.5 -138h448q-2 83 -44 141.5t-117 78.5q-28 7 -62 7q-38 0 -66 -8zM384 508q85 -23 134.5 -90.5t49.5 -164.5q0 -30 -31 -30h-450q8 -69 51 -119q63 -75 170 -77h5q85 0 152 51q7 5 13 5q7 0 12 -4.5t5 -11.5t-7 -14q-64 -60 -172 -60h-5 q-133 2 -201 89q-60 77 -60 174v17q4 82 53.5 147.5t129.5 87.5q34 9 76 9q37 0 75 -9z"/>
<glyph glyph-name="f" horiz-adv-x="350" unicode="f" d="M274 467h-125v-454q0 -20 -18 -20q-17 0 -17 20v454h-80q-16 0 -16 14q0 15 17 15h79v6q0 71 32.5 115t106.5 44q57 0 93 -27q8 -5 8 -13q0 -16 -15 -16q-5 0 -12 5q-22 19 -73 19q-60 0 -82.5 -33t-22.5 -94v-6h125q17 0 17 -14q0 -15 -17 -15z"/>
<glyph glyph-name="g" horiz-adv-x="618" unicode="g" d="M538 494v-478q0 -104 -68.5 -161.5t-175.5 -57.5q-120 0 -190 66q-7 7 -7 14t5 11.5t12 4.5q6 0 13 -5q43 -33 79.5 -45t87.5 -12q89 0 149 47.5t60 137.5v93q-24 -57 -76 -87.5t-117 -32.5h-8q-53 0 -98 19q-70 27 -110 90t-42 141v9q0 87 41 153t118 98q45 19 95 19 q67 0 124 -34q53 -35 73 -89v99q0 18 17 18q18 0 18 -18zM399 461q-49 22 -95 22h-6q-71 -5 -123 -45q-88 -70 -88 -188v-12q2 -48 18 -87q25 -60 81 -93.5t121 -33.5h3q83 3 135.5 54.5t57.5 130.5v87q-6 118 -104 165z"/>
<glyph glyph-name="h" horiz-adv-x="645" unicode="h" d="M531 12v285q0 81 -56 134.5t-133 53.5q-20 0 -50 -7q-76 -19 -124.5 -83.5t-50.5 -144.5v-238q0 -18 -17 -18q-18 0 -18 18v625q0 17 17 17q18 0 18 -18v-281q16 60 61 100.5t103 55.5q32 8 62 8q91 0 157 -60t66 -162v-285q0 -18 -17 -18q-18 0 -18 18z"/>
<glyph glyph-name="i" horiz-adv-x="197" unicode="i" d="M118 633v-56q0 -17 -18 -17q-19 0 -19 17v56q0 17 19 17q18 0 18 -17zM82 8v486q0 18 18 18q17 0 17 -17v-487q0 -18 -17 -18q-18 0 -18 18z"/>
<glyph glyph-name="j" horiz-adv-x="209" unicode="j" d="M128 633v-56q0 -17 -18 -17q-19 0 -19 17v56q0 17 19 17q18 0 18 -17zM28 -191q-2 -1 -7 -1q-7 0 -12 5.5t-5 12.5q0 12 12 16q47 26 62 58.5t15 82.5q0 9 -0.5 30t-0.5 34v440q0 17 18 17q7 0 12 -5t5 -12v-440v-44q0 -71 -18.5 -116.5t-80.5 -77.5z"/>
<glyph glyph-name="k" horiz-adv-x="493" unicode="k" d="M118 235l306 273q7 7 16 7q17 0 17 -16q0 -8 -7 -15l-217 -192l235 -268q4 -5 4 -12t-5.5 -12t-11.5 -5t-12 6l-237 269l-88 -77v-181q0 -18 -17 -18q-18 0 -18 18v626q0 18 17 18q18 0 18 -18v-403z"/>
<glyph glyph-name="l" horiz-adv-x="196" unicode="l" d="M117 636v-628q0 -7 -5 -12t-12 -5q-18 0 -18 17v628q0 17 18 17q7 0 12 -5t5 -12z"/>
<glyph glyph-name="m" horiz-adv-x="1094" unicode="m" d="M980 11v286q-1 78 -56 129t-133 51q-21 0 -53 -7q-76 -19 -124 -84t-48 -144v-231q0 -18 -18 -18t-18 18v268q0 52 -22 98t-63 71q-46 28 -104 28q-26 0 -50 -6q-76 -19 -125 -84t-49 -144v-231q0 -18 -17 -18q-18 0 -18 18v483q0 7 5 12t12 5q18 0 18 -17v-148 q18 63 62.5 103t102.5 55q27 7 58 7q69 0 123 -33q79 -49 94 -147q37 139 172 173q27 7 58 7q91 0 159.5 -57.5t68.5 -153.5v-289q0 -18 -18 -18q-17 0 -17 18z"/>
<glyph glyph-name="n" horiz-adv-x="645" unicode="n" d="M531 11v286q0 81 -56 134.5t-133 53.5q-20 0 -50 -7q-76 -19 -124.5 -83.5t-50.5 -144.5v-239q0 -18 -17 -18q-18 0 -18 18v483q0 17 18 17q17 0 17 -18v-138q16 60 61 100.5t103 55.5q32 8 62 8q91 0 157 -60t66 -162v-286q0 -18 -17 -18q-18 0 -18 18z"/>
<glyph glyph-name="o" d="M372 474q-32 8 -65 8q-31 0 -63 -8q-73 -20 -116 -83t-43 -139q0 -87 52 -148q64 -77 171 -77q109 0 173 77q52 62 52 146q0 77 -43.5 140.5t-117.5 83.5zM308 -7q-124 0 -199 89q-61 75 -61 172q0 3 0.5 9.5t0.5 9.5q7 83 55.5 148t127.5 87q34 9 76 9q38 0 75 -9 q79 -22 128 -87t56 -148q0 -3 0.5 -9.5t0.5 -9.5q0 -97 -61 -172q-75 -89 -199 -89z" unicode="o"/>
<glyph glyph-name="p" horiz-adv-x="620" unicode="p" d="M221 461q-98 -47 -104 -165v-87q5 -79 57.5 -130.5t135.5 -54.5h3q65 0 121 33.5t81 93.5q16 39 18 87v12q0 118 -88 188q-52 40 -123 45h-6q-46 0 -95 -22zM416 8q-45 -19 -98 -19h-8q-65 2 -117 32.5t-76 87.5v-289q0 -18 -17 -18q-18 0 -18 18v674q0 18 18 18 q17 0 17 -18v-99q20 54 73 89q57 34 124 34q50 0 95 -19q77 -32 118 -98t41 -153v-9q-2 -78 -42 -141t-110 -90z"/>
<glyph glyph-name="q" horiz-adv-x="621" unicode="q" d="M400 461q-49 22 -95 22h-6q-71 -5 -123 -45q-88 -70 -88 -188v-12q2 -48 18 -87q25 -60 81 -93.5t121 -33.5h3q83 3 135.5 54.5t57.5 130.5v87q-6 118 -104 165zM205 8q-70 27 -110 90t-42 141v9q0 87 41 153t118 98q45 19 95 19q67 0 124 -34q53 -35 73 -89v99 q0 18 17 18q18 0 18 -18v-674q0 -18 -18 -18q-17 0 -17 18v289q-24 -57 -76 -87.5t-117 -32.5h-8q-53 0 -98 19z"/>
<glyph glyph-name="r" horiz-adv-x="337" unicode="r" d="M118 494v-111q16 57 67 92.5t114 35.5q18 0 18 -17t-18 -17q-90 0 -135.5 -65.5t-45.5 -164.5v-231q0 -18 -17 -18q-18 0 -18 18v478q0 17 18 17q7 0 12 -5t5 -12z"/>
<glyph glyph-name="s" horiz-adv-x="532" unicode="s" d="M38 110q-1 3 -1 7q0 16 16 16t17 -17q9 -44 66.5 -67.5t129.5 -23.5q37 0 76.5 9t75.5 37t36 70q0 36 -22.5 57t-59 28.5t-80 11t-87 8.5t-80 16t-59 38.5t-22.5 71.5q0 67 67 106.5t145 39.5q177 0 216 -102q1 -3 1 -7q0 -19 -17 -19q-12 0 -17 13q-31 82 -183 82 q-40 0 -78.5 -10.5t-69 -37.5t-30.5 -65q0 -39 30.5 -60.5t76 -26t99 -10.5t99 -14.5t76 -38.5t30.5 -81q0 -42 -22.5 -73t-59 -46.5t-71.5 -22t-70 -6.5t-68.5 5t-68.5 17t-59.5 36.5t-31.5 58.5z"/>
<glyph glyph-name="t" horiz-adv-x="385" unicode="t" d="M163 509h139q20 0 20 -16t-20 -16h-139v-307q0 -43 6 -71.5t30.5 -51.5t68.5 -23q34 0 60 15q3 2 9 2q17 0 17 -15q0 -10 -13 -17q-33 -17 -73 -17q-139 0 -139 178v307h-93q-20 0 -20 16t20 16h93v128q0 16 17 16t17 -16v-128z"/>
<glyph glyph-name="u" horiz-adv-x="646" unicode="u" d="M115 496v-287q0 -79 56.5 -132.5t133.5 -53.5q23 0 49 6q76 19 124.5 83.5t50.5 144.5v239q0 18 17 18q18 0 18 -18v-483q0 -17 -18 -17q-17 0 -17 18v144q-17 -61 -63 -104.5t-103 -58.5q-27 -6 -54 -6q-92 0 -160.5 59t-68.5 161v287q0 18 17 18q18 0 18 -18z"/>
<glyph glyph-name="v" horiz-adv-x="555" unicode="v" d="M266 5l-247 487q-2 4 -2 7q0 7 6 12t13 5q11 0 17 -12l227 -450l225 447q5 12 17 12q14 0 14 -14q0 -6 -2 -10l-239 -483q-5 -10 -14 -10t-15 9z"/>
<glyph glyph-name="w" horiz-adv-x="940" unicode="w" d="M30 493q-1 3 -1 7q0 8 5.5 13t12.5 5q12 0 17 -11l199 -453l192 393q5 11 17 11t17 -11l195 -394l194 449q3 11 17 11q17 0 17 -15q0 -3 -2 -9l-211 -484q-5 -9 -16 -9t-16 9l-193 400l-197 -400q-5 -9 -17 -9q-11 0 -17 9q-37 92 -69 164.5t-73 163.5t-71 160z"/>
<glyph glyph-name="x" horiz-adv-x="520" unicode="x" d="M228 257l-191 225q-7 7 -7 15q0 7 5 12t12 5q8 0 15 -7l190 -228l204 230q6 7 13 7t12.5 -5t5.5 -12t-4 -12l-205 -230l213 -235q5 -6 5 -14q0 -16 -16 -16q-10 0 -17 9l-211 233l-196 -232q-7 -8 -17 -8q-16 0 -16 16q0 9 8 17z"/>
<glyph glyph-name="y" horiz-adv-x="559" unicode="y" d="M260 18l-239 471q0 1 -0.5 2.5t-0.5 2.5q0 7 5.5 12.5t12.5 5.5q10 0 17 -11l227 -449l222 449q6 13 18 13q18 0 18 -16q0 -6 -2 -9l-339 -670q-7 -15 -19 -15q-15 0 -15 17q0 3 2 9z"/>
<glyph glyph-name="z" horiz-adv-x="529" unicode="z" d="M482 474l-398 -442l391 2q17 0 17 -17t-17 -17h-422q-20 0 -20 17q0 9 7 15l393 443l-367 -1q-19 0 -19 17q0 18 19 18h401q21 0 21 -20q0 -7 -6 -15z"/>
<glyph glyph-name="braceleft" horiz-adv-x="261" unicode="{" d="M104 258q12 -9 18 -17q28 -34 28 -121v-30q-2 -36 -2 -53q0 -12 2 -36q7 -46 21 -61q19 -19 53 -19q18 0 18 -19q0 -18 -18 -18q-55 0 -82 32q-29 33 -29 126v30q0 8 0.5 22t0.5 21v15q0 70 -23 93q-16 17 -46 17q-18 0 -18 18t18 18q31 2 46 17q23 23 23 93v15 q0 7 -0.5 22t-0.5 22t-0.5 20t-0.5 19q0 72 23 116t89 44q18 0 18 -16t-18 -16q-30 0 -53 -23q-24 -26 -24 -90q0 -7 3 -73v-28q0 -109 -46 -140z"/>
<glyph glyph-name="bar" horiz-adv-x="154" unicode="|" d="M58 -86v714q0 18 17 18q18 0 18 -18v-714q0 -17 -18 -17q-17 0 -17 17z"/>
<glyph glyph-name="braceright" horiz-adv-x="270" unicode="}" d="M162 263q-47 32 -47 129q0 25 1 36q0 8 1.5 31.5t1.5 38.5q0 67 -24 95q-19 19 -53 19q-18 0 -18 18t18 18q35 0 58.5 -14t34.5 -39.5t15 -51t4 -59.5q0 -7 -0.5 -19t-0.5 -18q-1 -7 -1 -21.5t-1 -22.5q0 -82 23 -105q16 -15 47 -17q18 0 18 -18t-18 -18q-30 0 -47 -17 q-23 -23 -23 -108q1 -8 1 -23t1 -23v-30q0 -93 -29 -126q-27 -32 -82 -32q-18 0 -18 18q0 19 18 19q34 0 53 19q14 15 21 61q2 24 2 36q0 17 -2 53v31q0 89 28 123q6 8 18 17z"/>
<glyph glyph-name="asciitilde" horiz-adv-x="516" unicode="~" d="M26 240q18 99 100 99q54 0 137 -43q44 -23 91 -35q20 -5 34 -5q56 0 69 68q3 13 17 13q15 0 15 -15q0 -46 -30.5 -72.5t-69.5 -26.5q-19 0 -42 6q-40 10 -97 37q-87 41 -123 41q-59 0 -68 -73q-1 -15 -15 -15q-8 0 -13.5 6t-4.5 15z"/>
<glyph glyph-name="exclamdown" horiz-adv-x="159" unicode="¡" d="M60 447v58q0 17 18 17q17 0 17 -17v-58q0 -17 -17 -17q-18 0 -18 17zM60 -110v466q0 17 18 17q17 0 17 -17v-466q0 -15 -17 -15q-18 0 -18 15z"/>
<glyph glyph-name="cent" horiz-adv-x="510" unicode="¢" d="M113 104q54 -68 147 -76v450q-21 -2 -42 -6q-71 -19 -113 -82.5t-42 -140.5q0 -85 50 -145zM260 -86v80q-111 10 -174 88q-59 71 -59 171q0 3 0.5 9t0.5 10q6 82 54 147t125 87q28 7 53 8v74q0 18 16 18q15 0 15 -18v-74q106 -8 170 -83q4 -5 4 -10q2 -17 -15 -19 q-10 -1 -16 6q-53 63 -143 70v-451q100 3 157 77q6 6 12 7q15 1 20 -15q0 -10 -4 -14q-67 -85 -185 -88v-80q0 -17 -16 -17q-15 0 -15 17z"/>
<glyph glyph-name="yen" horiz-adv-x="617" unicode="¥" d="M291 138h-152q-16 2 -16 16t16 14h152v89h-152q-16 2 -16 16t16 14h131l-248 330q-6 7 -6 14q0 14 15 14q9 0 16 -8l261 -350l260 350q7 8 16 8q15 0 15 -14q0 -7 -6 -14l-247 -330h130q16 0 16 -15t-16 -15h-151v-89h151q16 0 16 -15t-16 -15h-151v-123q0 -19 -17 -19 t-17 19v123z"/>
<glyph glyph-name="dieresis" horiz-adv-x="350" unicode="¨" d="M84 724q10 0 18 -7.5t8 -18.5q0 -13 -8 -20t-18 -7q-11 0 -19 7.5t-8 19.5q0 11 8 18.5t19 7.5zM252 724q10 0 18.5 -7.5t8.5 -18.5q0 -13 -8 -20t-19 -7q-10 0 -18 7.5t-8 19.5q0 11 8 18.5t18 7.5z"/>
<glyph glyph-name="copyright" horiz-adv-x="457" unicode="©" d="M285 380q-22 25 -58 25q-28 0 -51 -17q-30 -26 -30 -70q0 -34 21 -58q22 -26 61 -26q45 0 67 31q5 5 12 7q18 2 20 -15q1 -7 -3 -13q-33 -46 -93 -46q-55 0 -90 39q-30 33 -30 82q0 23 5 38q11 35 38 58q13 11 31 18t42 7q53 0 84 -36q4 -4 5 -9q2 -17 -15 -21 q-9 -1 -16 6zM224 478q-65 0 -112 -46.5t-47 -112.5t47 -112.5t112 -46.5q66 0 112.5 46.5t46.5 112.5t-46.5 112.5t-112.5 46.5zM224 513q81 0 137.5 -57t56.5 -137t-56.5 -137t-137.5 -57q-80 0 -137 57t-57 137t57 137t137 57z"/>
<glyph glyph-name="guillemotleft" horiz-adv-x="404" unicode="«" d="M210 260l172 -166q6 -6 6 -13t-5 -12t-12 -5t-12 6l-180 173q-8 7 -8 17t10 19l179 173q5 5 11 5q7 0 12 -5t5 -12t-6 -13zM226 427l-172 -167l172 -166q6 -6 6 -13q0 -17 -17 -17q-7 0 -12 6l-180 173q-8 7 -8 17t10 19l179 173q5 5 11 5q7 0 12 -5t5 -12t-6 -13z"/>
<glyph glyph-name="registered" horiz-adv-x="421" unicode="®" d="M185 385q39 47 93 47q7 0 12.5 -5t5.5 -13q0 -17 -18 -17q-42 0 -67.5 -31t-25.5 -75v-92q0 -18 -18 -18q-17 0 -17 18v212q-2 18 17 18q18 0 18 -18v-26zM209 472q-65 0 -112 -46.5t-47 -112.5t47 -112.5t112 -46.5q66 0 112.5 46.5t46.5 112.5t-46.5 112.5t-112.5 46.5 zM209 507q81 0 137.5 -57t56.5 -137t-56.5 -137t-137.5 -57q-80 0 -137 57t-57 137t57 137t137 57z"/>
<glyph glyph-name="degree" horiz-adv-x="195" unicode="°" d="M90 643q-18 0 -31 -12.5t-13 -29.5q0 -18 13 -30.5t31 -12.5q17 0 30 12.5t13 30.5q0 17 -13 29.5t-30 12.5zM90 672q30 0 51 -20.5t21 -50.5q0 -31 -21 -51.5t-51 -20.5q-31 0 -52 20.5t-21 51.5q0 30 21 50.5t52 20.5z"/>
<glyph glyph-name="plusminus" horiz-adv-x="474" unicode="±" d="M417 0h-361q-7 0 -11.5 5t-4.5 11q0 7 4.5 12t11.5 5h361q7 0 11.5 -5t4.5 -12q0 -6 -4.5 -11t-11.5 -5zM253 499v-164h164q7 0 11.5 -5.5t4.5 -11.5q0 -14 -16 -14h-164v-166q0 -7 -5 -11.5t-12 -4.5q-16 0 -16 16v166h-164q-16 0 -16 15q0 16 16 16h164v164q0 16 16 16 q7 0 12 -4.5t5 -11.5z"/>
<glyph glyph-name="acute" horiz-adv-x="239" unicode="´" d="M78 587l77 96q6 7 14 7t13.5 -5t5.5 -12t-4 -12l-82 -90q-6 -7 -12 -7q-14 0 -14 15q0 6 2 8z"/>
<glyph glyph-name="paragraph" horiz-adv-x="481" unicode="¶" d="M441 602h-51v-695q0 -17 -17 -17q-18 0 -18 17v695h-179v-695q0 -17 -17 -17q-18 0 -18 17v446q-50 8 -83.5 48.5t-33.5 92.5q0 58 42.5 100.5t100.5 42.5h274q18 0 18 -18q0 -17 -18 -17z"/>
<glyph glyph-name="middot" horiz-adv-x="122" unicode="·" d="M59 329q11 0 18 -7.5t7 -18.5q0 -25 -25 -25q-11 0 -18.5 7t-7.5 18t7.5 18.5t18.5 7.5z"/>
<glyph glyph-name="cedilla" horiz-adv-x="304" unicode="¸" d="M183 23l-16 -45q5 1 15 1q37 0 60.5 -18.5t23.5 -48.5q0 -36 -28 -55t-66 -19q-67 0 -100 53q-3 5 -3 9q0 6 5 10t11 4q8 0 12 -7q24 -38 74 -38q63 0 63 43q0 20 -18 31t-42 11q-13 0 -25 -3l-13 16l18 57z"/>
<glyph glyph-name="guillemotright" horiz-adv-x="421" unicode="»" d="M34 92l172 166l-173 167q-5 8 -5 13q0 7 4.5 12t11.5 5t12 -5l179 -173q10 -9 10 -19q0 -9 -8 -17l-180 -173q-6 -6 -13 -6t-11.5 5t-4.5 12t6 13zM362 258l-173 167q-5 8 -5 13q0 7 4.5 12t11.5 5t12 -5l179 -173q10 -9 10 -19q0 -9 -8 -17l-180 -173q-6 -6 -13 -6 t-11.5 5t-4.5 12t6 13z"/>
<glyph glyph-name="questiondown" horiz-adv-x="581" unicode="¿" d="M294 451v55q0 16 16 16q6 0 11.5 -4.5t5.5 -11.5v-55q0 -7 -5.5 -11.5t-11.5 -4.5q-16 0 -16 16zM49 57q0 -44 23.5 -76t62 -48.5t78 -24t80.5 -7.5q190 0 230 113q4 11 15 11q15 0 15 -15q0 -5 -1 -8q-13 -40 -41.5 -68t-66.5 -42t-75 -20t-77 -6q-63 0 -123.5 17.5 t-107.5 63t-47 110.5v4q1 45 22.5 78.5t52.5 50.5t67 33.5t66.5 29t51 36.5t20.5 56v41q0 15 16 15q17 0 17 -15v-42q0 -46 -28.5 -76t-69.5 -47l-82 -34t-69.5 -49.5t-28.5 -80.5z"/>
<glyph glyph-name="Agrave" horiz-adv-x="697" unicode="À" d="M286 804l77 -96q2 -2 2 -8q0 -15 -14 -15q-6 0 -12 7l-82 90q-4 5 -4 12t5.5 12t13.5 5t14 -7zM562 179h-430l-89 -177q-5 -9 -14 -9q-7 0 -12 5t-5 12q0 2 2 8l318 627q4 9 15 9q9 0 14 -9l319 -627q2 -6 2 -8q0 -7 -5 -12t-12 -5q-9 0 -14 9zM546 209l-199 396 l-200 -396h399z"/>
<glyph glyph-name="Aacute" horiz-adv-x="697" unicode="Á" d="M337 717l77 96q6 7 14 7t13.5 -5t5.5 -12t-4 -12l-82 -90q-6 -7 -12 -7q-14 0 -14 15q0 6 2 8zM132 179l-89 -177q-5 -9 -14 -9q-7 0 -12 5t-5 12q0 2 2 8l318 627q4 9 15 9q9 0 14 -9l319 -627q2 -6 2 -8q0 -7 -5 -12t-12 -5q-9 0 -14 9l-89 177h-430zM347 605 l-200 -396h399z"/>
<glyph glyph-name="Acircumflex" horiz-adv-x="697" unicode="Â" d="M429 680l-82 73l-80 -72q-7 -8 -15 -8q-13 0 -13 12q0 9 9 16l81 77q9 8 19 8q9 0 17 -8l86 -78q7 -6 7 -14q0 -12 -13 -12q-7 0 -16 6zM132 179l-89 -177q-5 -9 -14 -9q-7 0 -12 5t-5 12q0 2 2 8l318 627q4 9 15 9q9 0 14 -9l319 -627q2 -6 2 -8q0 -7 -5 -12t-12 -5 q-9 0 -14 9l-89 177h-430zM347 605l-200 -396h399z"/>
<glyph glyph-name="Atilde" horiz-adv-x="697" unicode="Ã" d="M132 179l-89 -177q-5 -9 -14 -9q-7 0 -12 5t-5 12q0 2 2 8l318 627q4 9 15 9q9 0 14 -9l319 -627q2 -6 2 -8q0 -7 -5 -12t-12 -5q-9 0 -14 9l-89 177h-430zM347 605l-200 -396h399zM213 722q27 42 64 42q23 0 68 -22t62 -22h5q20 2 33 29q3 9 13 9q13 0 13 -12 q0 -6 -4 -11q-21 -44 -58 -44q-21 0 -63.5 19.5t-60.5 21.5q-1 0 -4 0.5t-5 0.5q-27 0 -42 -28q-4 -6 -12 -6q-13 0 -13 12q0 6 4 11z"/>
<glyph glyph-name="Adieresis" horiz-adv-x="697" unicode="Ä" d="M264 744q10 0 18 -7.5t8 -18.5q0 -13 -8 -20t-18 -7q-11 0 -19 7.5t-8 19.5q0 11 8 18.5t19 7.5zM432 744q10 0 18.5 -7.5t8.5 -18.5q0 -13 -8 -20t-19 -7q-10 0 -18 7.5t-8 19.5q0 11 8 18.5t18 7.5zM132 179l-89 -177q-5 -9 -14 -9q-7 0 -12 5t-5 12q0 2 2 8l318 627 q4 9 15 9q9 0 14 -9l319 -627q2 -6 2 -8q0 -7 -5 -12t-12 -5q-9 0 -14 9l-89 177h-430zM347 605l-200 -396h399z"/>
<glyph glyph-name="Aring" horiz-adv-x="697" unicode="Å" d="M349 794q-18 0 -31 -12.5t-13 -29.5q0 -18 13 -30.5t31 -12.5q17 0 30 12.5t13 30.5q0 17 -13 29.5t-30 12.5zM349 823q30 0 51 -20.5t21 -50.5q0 -31 -21 -51.5t-51 -20.5q-31 0 -52 20.5t-21 51.5q0 30 21 50.5t52 20.5zM132 179l-89 -177q-5 -9 -14 -9q-7 0 -12 5 t-5 12q0 2 2 8l318 627q4 9 15 9q9 0 14 -9l319 -627q2 -6 2 -8q0 -7 -5 -12t-12 -5q-9 0 -14 9l-89 177h-430zM347 605l-200 -396h399z"/>
<glyph glyph-name="AE" horiz-adv-x="1019" unicode="Æ" d="M226 209h277v357zM536 300v-268h411q16 0 16 -16t-16 -16h-417q-12 0 -19.5 8t-7.5 19v152h-302l-141 -179q-8 -9 -16 -9q-6 0 -11 4.5t-5 10.5q0 5 5 12l474 606q0 1 2 3q9 9 21 9h418q15 0 15 -15t-16 -15h-411v-276h391q16 0 16 -15t-16 -15h-391z"/>
<glyph glyph-name="Ccedilla" horiz-adv-x="667" unicode="Ç" d="M632 114q-39 -55 -106 -88q-67 -34 -143 -36l-13 -39q5 1 15 1q37 0 60.5 -18.5t23.5 -48.5q0 -36 -28 -55t-66 -19q-67 0 -100 53q-3 4 -3 9q0 6 5 10t11 4q8 0 12 -7q24 -38 74 -38q63 0 63 43q0 20 -18 31t-42 11q-13 0 -25 -3l-13 16l16 50q-126 8 -214 100.5 t-88 226.5v12q3 119 75 209.5t187 108.5q32 4 49 4q66 0 127.5 -25.5t105.5 -72.5q5 -5 5 -13q0 -15 -15 -15q-9 0 -14 6q-79 86 -208 86q-23 0 -45 -3q-103 -16 -167.5 -97.5t-67.5 -188.5v-8q0 -125 87 -211t206 -86q68 0 134 33q56 28 94 77q5 8 14 8q6 0 11 -4.5 t5 -11.5q0 -6 -4 -11z"/>
<glyph glyph-name="Egrave" horiz-adv-x="639" unicode="È" d="M299 801l77 -96q2 -2 2 -8q0 -15 -14 -15q-6 0 -12 7l-82 90q-4 5 -4 12t5.5 12t13.5 5t14 -7zM125 300v-268h442q16 0 16 -16t-16 -16h-448q-12 0 -19.5 8t-7.5 19v583q0 11 7.5 18.5t19.5 7.5h449q15 0 15 -15t-16 -15h-442v-276h422q16 0 16 -15t-16 -15h-422z"/>
<glyph glyph-name="Eacute" horiz-adv-x="639" unicode="É" d="M329 706l77 96q6 7 14 7t13.5 -5t5.5 -12t-4 -12l-82 -90q-6 -7 -12 -7q-14 0 -14 15q0 6 2 8zM125 32h442q16 0 16 -16t-16 -16h-448q-12 0 -19.5 8t-7.5 19v583q0 11 7.5 18.5t19.5 7.5h449q15 0 15 -15t-16 -15h-442v-276h422q16 0 16 -15t-16 -15h-422v-268z"/>
<glyph glyph-name="Ecircumflex" horiz-adv-x="639" unicode="Ê" d="M425 693l-82 73l-80 -72q-7 -8 -15 -8q-13 0 -13 12q0 8 9 16l81 77q9 8 19 8q9 0 17 -8l86 -78q7 -6 7 -14q0 -12 -13 -12q-7 0 -16 6zM125 32h442q16 0 16 -16t-16 -16h-448q-12 0 -19.5 8t-7.5 19v583q0 11 7.5 18.5t19.5 7.5h449q15 0 15 -15t-16 -15h-442v-276h422 q16 0 16 -15t-16 -15h-422v-268z"/>
<glyph glyph-name="Edieresis" horiz-adv-x="639" unicode="Ë" d="M270 747q10 0 18 -7.5t8 -18.5q0 -13 -8 -20t-18 -7q-11 0 -19 7.5t-8 19.5q0 11 8 18.5t19 7.5zM438 747q10 0 18.5 -7.5t8.5 -18.5q0 -13 -8 -20t-19 -7q-10 0 -18 7.5t-8 19.5q0 11 8 18.5t18 7.5zM125 32h442q16 0 16 -16t-16 -16h-448q-12 0 -19.5 8t-7.5 19v583 q0 11 7.5 18.5t19.5 7.5h449q15 0 15 -15t-16 -15h-442v-276h422q16 0 16 -15t-16 -15h-422v-268z"/>
<glyph glyph-name="Igrave" horiz-adv-x="220" unicode="Ì" d="M43 804l77 -96q2 -2 2 -8q0 -15 -14 -15q-6 0 -12 7l-82 90q-4 5 -4 12t5.5 12t13.5 5t14 -7zM92 17v607q0 9 5.5 14t12.5 5t12.5 -5t5.5 -14v-607q0 -17 -18 -17t-18 17z"/>
<glyph glyph-name="Iacute" horiz-adv-x="220" unicode="Í" d="M95 711l77 96q6 7 14 7t13.5 -5t5.5 -12t-4 -12l-82 -90q-6 -7 -12 -7q-14 0 -14 15q0 6 2 8zM92 17v607q0 9 5.5 14t12.5 5t12.5 -5t5.5 -14v-607q0 -17 -18 -17t-18 17z"/>
<glyph glyph-name="Icircumflex" horiz-adv-x="220" unicode="Î" d="M192 691l-82 73l-80 -72q-7 -8 -15 -8q-13 0 -13 12q0 8 9 16l81 77q9 8 19 8q9 0 17 -8l86 -78q7 -6 7 -14q0 -12 -13 -12q-7 0 -16 6zM92 17v607q0 9 5.5 14t12.5 5t12.5 -5t5.5 -14v-607q0 -17 -18 -17t-18 17z"/>
<glyph glyph-name="Idieresis" horiz-adv-x="220" unicode="Ï" d="M26 744q10 0 18 -7.5t8 -18.5q0 -13 -8 -20t-18 -7q-11 0 -19 7.5t-8 19.5q0 11 8 18.5t19 7.5zM194 744q10 0 18.5 -7.5t8.5 -18.5q0 -13 -8 -20t-19 -7q-10 0 -18 7.5t-8 19.5q0 11 8 18.5t18 7.5zM92 17v607q0 9 5.5 14t12.5 5t12.5 -5t5.5 -14v-607q0 -17 -18 -17 t-18 17z"/>
<glyph glyph-name="Eth" horiz-adv-x="657" unicode="Ð" d="M191 301h-105v-270h226q123 0 192 85t69 202t-69 202.5t-192 85.5h-226v-276h105q18 0 18 -14q0 -15 -18 -15zM312 0h-232q-11 0 -19 7.5t-8 18.5v275h-58q-19 0 -19 14q0 6 5.5 10.5t13.5 4.5h58v281q0 10 8 17.5t19 7.5h232q94 0 162.5 -47t100 -118t31.5 -153 t-31.5 -153t-100 -118t-162.5 -47z"/>
<glyph glyph-name="Ntilde" horiz-adv-x="687" unicode="Ñ" d="M230 720q27 42 64 42q24 0 68 -22t62 -22h5q20 2 33 29q3 9 13 9q13 0 13 -12q0 -6 -4 -11q-21 -44 -58 -44q-21 0 -63.5 19.5t-60.5 21.5q-2 0 -5 0.5t-4 0.5q-27 0 -42 -28q-4 -6 -12 -6q-13 0 -13 12q0 6 4 11zM560 622q0 8 5 13.5t12 5.5t12 -5.5t5 -13.5v-602 q0 -19 -15 -19q-11 0 -20 11l-435 567v-561q0 -18 -16 -18q-17 0 -17 18v601q0 21 16 21q11 0 19 -11l434 -567v560z"/>
<glyph glyph-name="Ograve" horiz-adv-x="745" unicode="Ò" d="M315 807l77 -96q2 -2 2 -8q0 -15 -14 -15q-6 0 -12 7l-82 90q-4 5 -4 12t5.5 12t13.5 5t14 -7zM317 614q-103 -16 -164.5 -96.5t-64.5 -189.5v-9q0 -125 84.5 -212.5t199.5 -87.5q116 0 200.5 87.5t84.5 212.5v9q-3 107 -70 188.5t-172 97.5q-32 4 -49 4t-49 -4zM372 -12 q-129 0 -223.5 96.5t-94.5 235.5v9q4 120 73.5 209.5t184.5 107.5q36 4 54 4t54 -4q117 -18 192 -108.5t78 -208.5v-11q0 -139 -94 -234.5t-224 -95.5z"/>
<glyph glyph-name="Oacute" horiz-adv-x="745" unicode="Ó" d="M368 714l77 96q6 7 14 7t13.5 -5t5.5 -12t-4 -12l-82 -90q-6 -7 -12 -7q-14 0 -14 15q0 6 2 8zM317 614q-103 -16 -164.5 -96.5t-64.5 -189.5v-9q0 -125 84.5 -212.5t199.5 -87.5q116 0 200.5 87.5t84.5 212.5v9q-3 107 -70 188.5t-172 97.5q-32 4 -49 4t-49 -4zM372 -12 q-129 0 -223.5 96.5t-94.5 235.5v9q4 120 73.5 209.5t184.5 107.5q36 4 54 4t54 -4q117 -18 192 -108.5t78 -208.5v-11q0 -139 -94 -234.5t-224 -95.5z"/>
<glyph glyph-name="Ocircumflex" horiz-adv-x="745" unicode="Ô" d="M454 695l-82 73l-80 -72q-7 -8 -15 -8q-13 0 -13 12q0 8 9 16l81 77q9 8 19 8q9 0 17 -8l86 -78q7 -6 7 -14q0 -12 -13 -12q-7 0 -16 6zM317 614q-103 -16 -164.5 -96.5t-64.5 -189.5v-9q0 -125 84.5 -212.5t199.5 -87.5q116 0 200.5 87.5t84.5 212.5v9q-3 107 -70 188.5 t-172 97.5q-32 4 -49 4t-49 -4zM372 -12q-129 0 -223.5 96.5t-94.5 235.5v9q4 120 73.5 209.5t184.5 107.5q36 4 54 4t54 -4q117 -18 192 -108.5t78 -208.5v-11q0 -139 -94 -234.5t-224 -95.5z"/>
<glyph glyph-name="Otilde" horiz-adv-x="745" unicode="Õ" d="M252 738q27 42 64 42q24 0 68 -22t62 -22h5q20 2 33 29q3 9 13 9q13 0 13 -12q0 -6 -4 -11q-21 -44 -58 -44q-21 0 -63.5 19.5t-60.5 21.5q-2 0 -5 0.5t-4 0.5q-27 0 -42 -28q-5 -6 -12 -6q-13 0 -13 12q0 6 4 11zM317 614q-103 -16 -164.5 -96.5t-64.5 -189.5v-9 q0 -125 84.5 -212.5t199.5 -87.5q116 0 200.5 87.5t84.5 212.5v9q-3 107 -70 188.5t-172 97.5q-32 4 -49 4t-49 -4zM372 -12q-129 0 -223.5 96.5t-94.5 235.5v9q4 120 73.5 209.5t184.5 107.5q36 4 54 4t54 -4q117 -18 192 -108.5t78 -208.5v-11q0 -139 -94 -234.5 t-224 -95.5z"/>
<glyph glyph-name="Odieresis" horiz-adv-x="745" unicode="Ö" d="M293 760q10 0 18 -7.5t8 -18.5q0 -13 -8 -20t-18 -7q-11 0 -19 7.5t-8 19.5q0 11 8 18.5t19 7.5zM461 760q10 0 18.5 -7.5t8.5 -18.5q0 -13 -8 -20t-19 -7q-10 0 -18 7.5t-8 19.5q0 11 8 18.5t18 7.5zM317 614q-103 -16 -164.5 -96.5t-64.5 -189.5v-9q0 -125 84.5 -212.5 t199.5 -87.5q116 0 200.5 87.5t84.5 212.5v9q-3 107 -70 188.5t-172 97.5q-32 4 -49 4t-49 -4zM372 -12q-129 0 -223.5 96.5t-94.5 235.5v9q4 120 73.5 209.5t184.5 107.5q36 4 54 4t54 -4q117 -18 192 -108.5t78 -208.5v-11q0 -139 -94 -234.5t-224 -95.5z"/>
<glyph glyph-name="Oslash" horiz-adv-x="745" unicode="Ø" d="M372 19q116 0 200.5 87.5t84.5 212.5v9q-2 72 -35.5 135t-89.5 103l-288 -515q59 -32 128 -32zM317 614q-103 -16 -164.5 -96.5t-64.5 -189.5v-9q0 -78 35 -144t94 -107l290 514q-43 25 -92 32q-32 4 -49 4t-49 -4zM372 -12q-78 0 -143 35l-53 -94q-6 -13 -17 -13 q-14 0 -14 17q0 6 2 10l54 97q-68 45 -107.5 118.5t-39.5 161.5v9q4 120 73.5 209.5t184.5 107.5q36 4 54 4t54 -4q52 -8 102 -36l44 78q6 13 17 13q14 0 14 -15q0 -4 -3 -10l-46 -81q65 -44 102.5 -114.5t39.5 -151.5v-11q0 -139 -94 -234.5t-224 -95.5z"/>
<glyph glyph-name="Ugrave" horiz-adv-x="759" unicode="Ù" d="M323 806l77 -96q2 -2 2 -8q0 -15 -14 -15q-6 0 -12 7l-82 90q-4 5 -4 12t5.5 12t13.5 5t14 -7zM636 280v348q0 8 5 12.5t12 4.5q16 0 16 -16v-349q0 -135 -86 -210.5t-203 -75.5t-202.5 75.5t-85.5 210.5v349q0 16 16 16t16 -17v-348q0 -120 76 -187t180 -67t180 67 t76 187z"/>
<glyph glyph-name="Uacute" horiz-adv-x="759" unicode="Ú" d="M352 713l77 96q6 7 14 7t13.5 -5t5.5 -12t-4 -12l-82 -90q-6 -7 -12 -7q-14 0 -14 15q0 6 2 8zM636 280v348q0 8 5 12.5t12 4.5q16 0 16 -16v-349q0 -135 -86 -210.5t-203 -75.5t-202.5 75.5t-85.5 210.5v349q0 16 16 16t16 -17v-348q0 -120 76 -187t180 -67t180 67 t76 187z"/>
<glyph glyph-name="Ucircumflex" horiz-adv-x="759" unicode="Û" d="M462 696l-82 73l-80 -72q-7 -8 -15 -8q-13 0 -13 12q0 9 9 16l81 77q9 8 19 8q9 0 17 -8l86 -78q7 -6 7 -14q0 -12 -13 -12q-7 0 -16 6zM636 280v348q0 8 5 12.5t12 4.5q16 0 16 -16v-349q0 -135 -86 -210.5t-203 -75.5t-202.5 75.5t-85.5 210.5v349q0 16 16 16t16 -17 v-348q0 -120 76 -187t180 -67t180 67t76 187z"/>
<glyph glyph-name="Udieresis" horiz-adv-x="759" unicode="Ü" d="M294 746q10 0 18 -7.5t8 -18.5q0 -13 -8 -20t-18 -7q-11 0 -19 7.5t-8 19.5q0 11 8 18.5t19 7.5zM462 746q10 0 18.5 -7.5t8.5 -18.5q0 -13 -8 -20t-19 -7q-10 0 -18 7.5t-8 19.5q0 11 8 18.5t18 7.5zM636 280v348q0 8 5 12.5t12 4.5q16 0 16 -16v-349q0 -135 -86 -210.5 t-203 -75.5t-202.5 75.5t-85.5 210.5v349q0 16 16 16t16 -17v-348q0 -120 76 -187t180 -67t180 67t76 187z"/>
<glyph glyph-name="Yacute" horiz-adv-x="617" unicode="Ý" d="M289 710l77 96q6 7 14 7t13.5 -5t5.5 -12t-4 -12l-82 -90q-6 -7 -12 -7q-14 0 -14 15q0 6 2 8zM291 259l-269 358q-6 7 -6 14q0 14 15 14q9 0 16 -8l261 -350l260 350q7 8 16 8q15 0 15 -14q0 -7 -6 -14l-268 -358v-244q0 -19 -17 -19t-17 19v244z"/>
<glyph glyph-name="Thorn" horiz-adv-x="634" unicode="Þ" d="M125 507v-377h212q110 0 166 53.5t54 127.5q-1 78 -61.5 137t-158.5 59h-212zM92 13v611q0 16 16 16q7 0 12 -4.5t5 -12.5v-85h211q120 0 187.5 -67.5t67.5 -159.5t-65.5 -152t-188.5 -60h-212v-85q0 -8 -5 -12.5t-12 -4.5q-16 0 -16 16z"/>
<glyph glyph-name="germandbls" horiz-adv-x="559" unicode="ß" d="M115 472v-634q0 -18 -16 -18q-18 0 -18 18v634q0 47 17 81t46 51t59.5 24.5t65.5 7.5t67.5 -8t62 -25.5t47.5 -51t18 -79.5q0 -48 -26 -82t-74 -49q67 -14 107.5 -54t40.5 -106q0 -51 -22 -88t-59.5 -56.5t-80 -28t-92.5 -8.5h-77q-18 0 -18 15t18 15h77q219 0 219 151 q0 70 -51.5 103.5t-135.5 33.5h-107q-17 0 -17 16t17 16h54q192 0 192 122q0 71 -49 102.5t-112 31.5t-108 -30.5t-45 -103.5z"/>
<glyph glyph-name="agrave" d="M249 676l77 -96q2 -2 2 -8q0 -15 -14 -15q-6 0 -12 7l-82 90q-4 5 -4 12t5.5 12t13.5 5t14 -7zM396 44q98 47 104 165v87q-6 118 -104 165q-41 18 -89 20h-3q-65 0 -121 -33.5t-81 -93.5q-16 -39 -18 -87v-12q0 -118 88 -188q52 -40 123 -45h6q46 0 95 22zM201 497 q45 19 98 19h8q68 -2 120 -32q51 -34 73 -93v101q0 18 17 18q18 0 18 -18v-479q0 -18 -18 -18q-17 0 -17 18v101q-22 -59 -73 -93q-57 -34 -124 -34q-50 0 -95 19q-77 32 -118 98t-41 153v9q2 78 42 141t110 90z" unicode="à"/>
<glyph glyph-name="aacute" d="M284 579l77 96q6 7 14 7t13.5 -5t5.5 -12t-4 -12l-82 -90q-6 -7 -12 -7q-14 0 -14 15q0 6 2 8zM396 44q98 47 104 165v87q-6 118 -104 165q-41 18 -89 20h-3q-65 0 -121 -33.5t-81 -93.5q-16 -39 -18 -87v-12q0 -118 88 -188q52 -40 123 -45h6q46 0 95 22zM201 497 q45 19 98 19h8q68 -2 120 -32q51 -34 73 -93v101q0 18 17 18q18 0 18 -18v-479q0 -18 -18 -18q-17 0 -17 18v101q-22 -59 -73 -93q-57 -34 -124 -34q-50 0 -95 19q-77 32 -118 98t-41 153v9q2 78 42 141t110 90z" unicode="á"/>
<glyph glyph-name="acircumflex" d="M385 561l-82 73l-80 -72q-7 -8 -15 -8q-13 0 -13 12q0 8 9 16l81 77q9 8 19 8q9 0 17 -8l86 -78q7 -6 7 -14q0 -12 -13 -12q-7 0 -16 6zM396 44q98 47 104 165v87q-6 118 -104 165q-41 18 -89 20h-3q-65 0 -121 -33.5t-81 -93.5q-16 -39 -18 -87v-12q0 -118 88 -188 q52 -40 123 -45h6q46 0 95 22zM201 497q45 19 98 19h8q68 -2 120 -32q51 -34 73 -93v101q0 18 17 18q18 0 18 -18v-479q0 -18 -18 -18q-17 0 -17 18v101q-22 -59 -73 -93q-57 -34 -124 -34q-50 0 -95 19q-77 32 -118 98t-41 153v9q2 78 42 141t110 90z" unicode="â"/>
<glyph glyph-name="atilde" d="M189 608q27 42 64 42q23 0 68 -22t62 -22h5q20 2 33 29q3 9 13 9q13 0 13 -12q0 -6 -4 -11q-21 -44 -58 -44q-21 0 -63.5 19.5t-60.5 21.5q-1 0 -4 0.5t-5 0.5q-27 0 -42 -28q-4 -6 -12 -6q-13 0 -13 12q0 6 4 11zM396 44q98 47 104 165v87q-6 118 -104 165 q-41 18 -89 20h-3q-65 0 -121 -33.5t-81 -93.5q-16 -39 -18 -87v-12q0 -118 88 -188q52 -40 123 -45h6q46 0 95 22zM201 497q45 19 98 19h8q68 -2 120 -32q51 -34 73 -93v101q0 18 17 18q18 0 18 -18v-479q0 -18 -18 -18q-17 0 -17 18v101q-22 -59 -73 -93q-57 -34 -124 -34 q-50 0 -95 19q-77 32 -118 98t-41 153v9q2 78 42 141t110 90z" unicode="ã"/>
<glyph glyph-name="adieresis" d="M228 641q10 0 18 -7.5t8 -18.5q0 -13 -8 -20t-18 -7q-11 0 -19 7.5t-8 19.5q0 11 8 18.5t19 7.5zM396 641q10 0 18.5 -7.5t8.5 -18.5q0 -13 -8 -20t-19 -7q-10 0 -18 7.5t-8 19.5q0 11 8 18.5t18 7.5zM396 44q98 47 104 165v87q-6 118 -104 165q-41 18 -89 20h-3 q-65 0 -121 -33.5t-81 -93.5q-16 -39 -18 -87v-12q0 -118 88 -188q52 -40 123 -45h6q46 0 95 22zM201 497q45 19 98 19h8q68 -2 120 -32q51 -34 73 -93v101q0 18 17 18q18 0 18 -18v-479q0 -18 -18 -18q-17 0 -17 18v101q-22 -59 -73 -93q-57 -34 -124 -34q-50 0 -95 19 q-77 32 -118 98t-41 153v9q2 78 42 141t110 90z" unicode="ä"/>
<glyph glyph-name="aring" d="M302 659q-18 0 -31 -12.5t-13 -29.5q0 -18 13 -30.5t31 -12.5q17 0 30 12.5t13 30.5q0 17 -13 29.5t-30 12.5zM302 688q30 0 51 -20.5t21 -50.5q0 -31 -21 -51.5t-51 -20.5q-31 0 -52 20.5t-21 51.5q0 30 21 50.5t52 20.5zM396 44q98 47 104 165v87q-6 118 -104 165 q-41 18 -89 20h-3q-65 0 -121 -33.5t-81 -93.5q-16 -39 -18 -87v-12q0 -118 88 -188q52 -40 123 -45h6q46 0 95 22zM201 497q45 19 98 19h8q68 -2 120 -32q51 -34 73 -93v101q0 18 17 18q18 0 18 -18v-479q0 -18 -18 -18q-17 0 -17 18v101q-22 -59 -73 -93q-57 -34 -124 -34 q-50 0 -95 19q-77 32 -118 98t-41 153v9q2 78 42 141t110 90z" unicode="å"/>
<glyph glyph-name="ae" horiz-adv-x="1068" unicode="æ" d="M696 475q-72 -20 -115.5 -78.5t-46.5 -133.5v-7h451q-2 83 -44 141.5t-117 78.5q-28 7 -62 7q-38 0 -66 -8zM396 44q100 48 106 165v87q-6 117 -106 165q-41 18 -89 20h-3q-65 0 -121 -33.5t-81 -93.5q-16 -39 -18 -87v-12q0 -118 88 -188q52 -40 123 -45h6q46 0 95 22z M201 497q45 19 98 19h8q68 -2 120 -32q54 -36 75 -93v101q0 18 16 18t16 -18v-101q50 88 150 117q34 9 76 9q38 0 75 -9q85 -23 134.5 -90.5t49.5 -164.5q0 -30 -31 -30h-453q8 -67 53 -120q62 -74 171 -76h5q85 0 152 51q7 5 13 5q7 0 12 -4.5t5 -11.5t-7 -14 q-64 -60 -172 -60h-5q-71 1 -133.5 34t-94.5 94v-108q0 -18 -16 -18t-16 18v101q-21 -57 -75 -93q-57 -34 -124 -34q-50 0 -95 19q-77 32 -118 98t-41 153v9q2 78 42 141t110 90z"/>
<glyph glyph-name="ccedilla" horiz-adv-x="525" unicode="ç" d="M449 408q-58 71 -159 71q-30 0 -57 -7q-71 -19 -113 -82.5t-42 -140.5q0 -85 50 -145q62 -77 170 -77q106 0 165 77q6 6 12 7q15 1 20 -15q0 -10 -4 -14q-69 -86 -190 -88l-10 -29q5 1 15 1q36 0 58.5 -18.5t22.5 -48.5q0 -36 -27 -55t-64 -19q-65 0 -96 53q-3 4 -3 9 q0 14 15 14q8 0 12 -7q23 -38 71 -38q61 0 61 43q0 20 -17 31t-41 11q-12 0 -24 -3l-13 16l13 40q-110 10 -173 88q-59 71 -59 171q0 3 0.5 9t0.5 10q5 86 52.5 149.5t126.5 84.5q35 8 67 8q116 0 187 -83q4 -5 4 -10q2 -17 -15 -19q-10 -1 -16 6z"/>
<glyph glyph-name="egrave" horiz-adv-x="619" unicode="è" d="M266 680l77 -96q2 -2 2 -8q0 -15 -14 -15q-6 0 -12 7l-82 90q-4 5 -4 12t5.5 12t13.5 5t14 -7zM245 475q-73 -20 -115.5 -81t-43.5 -138h448q-2 83 -44 141.5t-117 78.5q-28 7 -62 7q-38 0 -66 -8zM384 508q85 -23 134.5 -90.5t49.5 -164.5q0 -30 -31 -30h-450 q8 -69 51 -119q63 -75 170 -77h5q85 0 152 51q7 5 13 5q7 0 12 -4.5t5 -11.5t-7 -14q-64 -60 -172 -60h-5q-133 2 -201 89q-60 77 -60 174v17q4 82 53.5 147.5t129.5 87.5q34 9 76 9q37 0 75 -9z"/>
<glyph glyph-name="eacute" horiz-adv-x="619" unicode="é" d="M288 587l77 96q6 7 14 7t13.5 -5t5.5 -12t-4 -12l-82 -90q-6 -7 -12 -7q-14 0 -14 15q0 6 2 8zM245 475q-73 -20 -115.5 -81t-43.5 -138h448q-2 83 -44 141.5t-117 78.5q-28 7 -62 7q-38 0 -66 -8zM384 508q85 -23 134.5 -90.5t49.5 -164.5q0 -30 -31 -30h-450 q8 -69 51 -119q63 -75 170 -77h5q85 0 152 51q7 5 13 5q7 0 12 -4.5t5 -11.5t-7 -14q-64 -60 -172 -60h-5q-133 2 -201 89q-60 77 -60 174v17q4 82 53.5 147.5t129.5 87.5q34 9 76 9q37 0 75 -9z"/>
<glyph glyph-name="ecircumflex" horiz-adv-x="619" unicode="ê" d="M398 572l-82 73l-80 -72q-7 -8 -15 -8q-13 0 -13 12q0 9 9 16l81 77q9 8 19 8q9 0 17 -8l86 -78q7 -6 7 -14q0 -12 -13 -12q-7 0 -16 6zM245 475q-73 -20 -115.5 -81t-43.5 -138h448q-2 83 -44 141.5t-117 78.5q-28 7 -62 7q-38 0 -66 -8zM384 508q85 -23 134.5 -90.5 t49.5 -164.5q0 -30 -31 -30h-450q8 -69 51 -119q63 -75 170 -77h5q85 0 152 51q7 5 13 5q7 0 12 -4.5t5 -11.5t-7 -14q-64 -60 -172 -60h-5q-133 2 -201 89q-60 77 -60 174v17q4 82 53.5 147.5t129.5 87.5q34 9 76 9q37 0 75 -9z"/>
<glyph glyph-name="edieresis" horiz-adv-x="619" unicode="ë" d="M228 643q10 0 18 -7.5t8 -18.5q0 -13 -8 -20t-18 -7q-11 0 -19 7.5t-8 19.5q0 11 8 18.5t19 7.5zM396 643q10 0 18.5 -7.5t8.5 -18.5q0 -13 -8 -20t-19 -7q-10 0 -18 7.5t-8 19.5q0 11 8 18.5t18 7.5zM245 475q-73 -20 -115.5 -81t-43.5 -138h448q-2 83 -44 141.5 t-117 78.5q-28 7 -62 7q-38 0 -66 -8zM384 508q85 -23 134.5 -90.5t49.5 -164.5q0 -30 -31 -30h-450q8 -69 51 -119q63 -75 170 -77h5q85 0 152 51q7 5 13 5q7 0 12 -4.5t5 -11.5t-7 -14q-64 -60 -172 -60h-5q-133 2 -201 89q-60 77 -60 174v17q4 82 53.5 147.5t129.5 87.5 q34 9 76 9q37 0 75 -9z"/>
<glyph glyph-name="igrave" horiz-adv-x="197" unicode="ì" d="M37 691l77 -96q2 -2 2 -8q0 -15 -14 -15q-6 0 -12 7l-82 90q-4 5 -4 12t5.5 12t13.5 5t14 -7zM82 18v476q0 18 18 18q17 0 17 -17v-477q0 -18 -17 -18q-18 0 -18 18z"/>
<glyph glyph-name="iacute" horiz-adv-x="197" unicode="í" d="M87 591l77 96q6 7 14 7t13.5 -5t5.5 -12t-4 -12l-82 -90q-6 -7 -12 -7q-14 0 -14 15q0 6 2 8zM82 494q0 18 18 18q17 0 17 -17v-477q0 -18 -17 -18q-18 0 -18 18v476z"/>
<glyph glyph-name="icircumflex" horiz-adv-x="197" unicode="î" d="M183 572l-82 73l-80 -72q-7 -8 -15 -8q-13 0 -13 12q0 9 9 16l81 77q9 8 19 8q9 0 17 -8l86 -78q7 -6 7 -14q0 -12 -13 -12q-7 0 -16 6zM82 494q0 18 18 18q17 0 17 -17v-477q0 -18 -17 -18q-18 0 -18 18v476z"/>
<glyph glyph-name="idieresis" horiz-adv-x="197" unicode="ï" d="M17 662q10 0 18 -7.5t8 -18.5q0 -13 -8 -20t-18 -7q-11 0 -19 7.5t-8 19.5q0 11 8 18.5t19 7.5zM185 662q10 0 18.5 -7.5t8.5 -18.5q0 -13 -8 -20t-19 -7q-10 0 -18 7.5t-8 19.5q0 11 8 18.5t18 7.5zM82 494q0 18 18 18q17 0 17 -17v-477q0 -18 -17 -18q-18 0 -18 18v476 z"/>
<glyph glyph-name="eth" horiz-adv-x="580" unicode="ð" d="M91 353q-16 -41 -16 -89q0 -35 7 -63q24 -88 93 -134q56 -38 122 -38q57 0 108 30q38 22 59.5 61.5t23.5 83.5v108q-15 75 -75.5 118.5t-135.5 43.5q-61 0 -111.5 -30.5t-74.5 -90.5zM415 651l41 45q6 7 14 7q15 0 15 -14q0 -7 -5 -12l-41 -44q66 -57 77 -148 q5 -31 5 -73q0 -10 -0.5 -31t-0.5 -32v-145q-1 -53 -26 -99t-73 -75q-52 -33 -124 -33q-82 0 -140 40q-56 36 -87.5 97.5t-31.5 129.5q0 54 21 103q29 67 90 104t132 37q64 0 119.5 -30t87.5 -87q0 64 -4 91q-11 79 -67 126l-52 -57q-5 -6 -14 -6q-6 0 -11 4t-5 10t6 12 l51 56l-4 3q-52 30 -113 30q-97 0 -163 -66q-7 -6 -14 -6q-16 0 -16 16q0 6 6 14q62 62 159 73q8 1 25 1q80 0 142 -40q0 -1 1 -1z"/>
<glyph glyph-name="ntilde" horiz-adv-x="645" unicode="ñ" d="M210 616q27 42 64 42q24 0 68 -22t62 -22h5q20 2 33 29q3 9 13 9q13 0 13 -12q0 -6 -4 -11q-21 -44 -58 -44q-21 0 -63.5 19.5t-60.5 21.5q-2 0 -5 0.5t-4 0.5q-27 0 -42 -28q-5 -6 -12 -6q-13 0 -13 12q0 6 4 11zM531 11v286q0 81 -56 134.5t-133 53.5q-20 0 -50 -7 q-76 -19 -124.5 -83.5t-50.5 -144.5v-239q0 -18 -17 -18q-18 0 -18 18v483q0 17 18 17q17 0 17 -18v-138q16 60 61 100.5t103 55.5q32 8 62 8q91 0 157 -60t66 -162v-286q0 -18 -17 -18q-18 0 -18 18z"/>
<glyph glyph-name="ograve" d="M252 698l77 -96q2 -2 2 -8q0 -15 -14 -15q-6 0 -12 7l-82 90q-4 5 -4 12t5.5 12t13.5 5t14 -7zM372 474q-32 8 -65 8q-31 0 -63 -8q-73 -20 -116 -83t-43 -139q0 -87 52 -148q64 -77 171 -77q109 0 173 77q52 62 52 146q0 77 -43.5 140.5t-117.5 83.5zM308 -7 q-124 0 -199 89q-61 75 -61 172q0 3 0.5 9.5t0.5 9.5q7 83 55.5 148t127.5 87q34 9 76 9q38 0 75 -9q79 -22 128 -87t56 -148q0 -3 0.5 -9.5t0.5 -9.5q0 -97 -61 -172q-75 -89 -199 -89z" unicode="ò"/>
<glyph glyph-name="oacute" d="M288 597l77 96q6 7 14 7t13.5 -5t5.5 -12t-4 -12l-82 -90q-6 -7 -12 -7q-14 0 -14 15q0 6 2 8zM372 474q-32 8 -65 8q-31 0 -63 -8q-73 -20 -116 -83t-43 -139q0 -87 52 -148q64 -77 171 -77q109 0 173 77q52 62 52 146q0 77 -43.5 140.5t-117.5 83.5zM308 -7 q-124 0 -199 89q-61 75 -61 172q0 3 0.5 9.5t0.5 9.5q7 83 55.5 148t127.5 87q34 9 76 9q38 0 75 -9q79 -22 128 -87t56 -148q0 -3 0.5 -9.5t0.5 -9.5q0 -97 -61 -172q-75 -89 -199 -89z" unicode="ó"/>
<glyph glyph-name="ocircumflex" d="M400 582l-82 73l-80 -72q-7 -8 -15 -8q-13 0 -13 12q0 9 9 16l81 77q9 8 19 8q9 0 17 -8l86 -78q7 -6 7 -14q0 -12 -13 -12q-7 0 -16 6zM372 474q-32 8 -65 8q-31 0 -63 -8q-73 -20 -116 -83t-43 -139q0 -87 52 -148q64 -77 171 -77q109 0 173 77q52 62 52 146 q0 77 -43.5 140.5t-117.5 83.5zM308 -7q-124 0 -199 89q-61 75 -61 172q0 3 0.5 9.5t0.5 9.5q7 83 55.5 148t127.5 87q34 9 76 9q38 0 75 -9q79 -22 128 -87t56 -148q0 -3 0.5 -9.5t0.5 -9.5q0 -97 -61 -172q-75 -89 -199 -89z" unicode="ô"/>
<glyph glyph-name="otilde" d="M186 620q27 42 64 42q24 0 68 -22t62 -22h5q20 2 33 29q3 9 13 9q13 0 13 -12q0 -6 -4 -11q-21 -44 -58 -44q-21 0 -63.5 19.5t-60.5 21.5q-2 0 -5 0.5t-4 0.5q-27 0 -42 -28q-5 -6 -12 -6q-13 0 -13 12q0 6 4 11zM372 474q-32 8 -65 8q-31 0 -63 -8q-73 -20 -116 -83 t-43 -139q0 -87 52 -148q64 -77 171 -77q109 0 173 77q52 62 52 146q0 77 -43.5 140.5t-117.5 83.5zM308 -7q-124 0 -199 89q-61 75 -61 172q0 3 0.5 9.5t0.5 9.5q7 83 55.5 148t127.5 87q34 9 76 9q38 0 75 -9q79 -22 128 -87t56 -148q0 -3 0.5 -9.5t0.5 -9.5 q0 -97 -61 -172q-75 -89 -199 -89z" unicode="õ"/>
<glyph glyph-name="odieresis" d="M232 665q10 0 18 -7.5t8 -18.5q0 -13 -8 -20t-18 -7q-11 0 -19 7.5t-8 19.5q0 11 8 18.5t19 7.5zM400 665q10 0 18.5 -7.5t8.5 -18.5q0 -13 -8 -20t-19 -7q-10 0 -18 7.5t-8 19.5q0 11 8 18.5t18 7.5zM372 474q-32 8 -65 8q-31 0 -63 -8q-73 -20 -116 -83t-43 -139 q0 -87 52 -148q64 -77 171 -77q109 0 173 77q52 62 52 146q0 77 -43.5 140.5t-117.5 83.5zM308 -7q-124 0 -199 89q-61 75 -61 172q0 3 0.5 9.5t0.5 9.5q7 83 55.5 148t127.5 87q34 9 76 9q38 0 75 -9q79 -22 128 -87t56 -148q0 -3 0.5 -9.5t0.5 -9.5q0 -97 -61 -172 q-75 -89 -199 -89z" unicode="ö"/>
<glyph glyph-name="divide" horiz-adv-x="518" unicode="÷" d="M244 469q11 0 18.5 -7.5t7.5 -18.5t-7.5 -18t-18.5 -7q-25 0 -25 25q0 11 7 18.5t18 7.5zM244 212q11 0 18.5 -7.5t7.5 -18.5t-7.5 -18.5t-18.5 -7.5t-18 7.5t-7 18.5t7 18.5t18 7.5zM432 293h-366q-7 0 -12 4.5t-5 11.5t5 12t12 5h366q7 0 11.5 -5t4.5 -12 q0 -16 -16 -16z"/>
<glyph glyph-name="oslash" d="M481 104q51 61 51 145q0 57 -25 109.5t-70 84.5l-227 -395q45 -21 98 -21q109 0 173 77zM372 474q-32 8 -65 8q-31 0 -63 -8q-73 -20 -116 -83t-43 -139q0 -87 52 -148q18 -22 44 -40l227 396q-12 7 -36 14zM117 -49l47 82q-29 18 -55 49q-61 75 -61 172q0 3 0.5 9.5 t0.5 9.5q7 83 55.5 148t127.5 87q34 9 76 9q38 0 75 -9q19 -5 43 -17l44 77q6 13 18 13q16 0 16 -16q0 -7 -2 -10l-47 -81q48 -33 77.5 -86.5t34.5 -114.5q0 -3 0.5 -9.5t0.5 -9.5q0 -97 -61 -172q-75 -89 -199 -89q-62 0 -115 24l-46 -80q-6 -13 -17 -13q-15 0 -15 17 q0 2 2 10z" unicode="ø"/>
<glyph glyph-name="ugrave" horiz-adv-x="646" unicode="ù" d="M281 698l77 -96q2 -2 2 -8q0 -15 -14 -15q-6 0 -12 7l-82 90q-4 5 -4 12t5.5 12t13.5 5t14 -7zM115 496v-287q0 -79 56.5 -132.5t133.5 -53.5q23 0 49 6q76 19 124.5 83.5t50.5 144.5v239q0 18 17 18q18 0 18 -18v-483q0 -17 -18 -17q-17 0 -17 18v144 q-17 -61 -63 -104.5t-103 -58.5q-27 -6 -54 -6q-92 0 -160.5 59t-68.5 161v287q0 18 17 18q18 0 18 -18z"/>
<glyph glyph-name="uacute" horiz-adv-x="646" unicode="ú" d="M292 593l77 96q6 7 14 7t13.5 -5t5.5 -12t-4 -12l-82 -90q-6 -7 -12 -7q-14 0 -14 15q0 6 2 8zM115 496v-287q0 -79 56.5 -132.5t133.5 -53.5q23 0 49 6q76 19 124.5 83.5t50.5 144.5v239q0 18 17 18q18 0 18 -18v-483q0 -17 -18 -17q-17 0 -17 18v144 q-17 -61 -63 -104.5t-103 -58.5q-27 -6 -54 -6q-92 0 -160.5 59t-68.5 161v287q0 18 17 18q18 0 18 -18z"/>
<glyph glyph-name="ucircumflex" horiz-adv-x="646" unicode="û" d="M405 578l-82 73l-80 -72q-7 -8 -15 -8q-13 0 -13 12q0 9 9 16l81 77q9 8 19 8q9 0 17 -8l86 -78q7 -6 7 -14q0 -12 -13 -12q-7 0 -16 6zM115 496v-287q0 -79 56.5 -132.5t133.5 -53.5q23 0 49 6q76 19 124.5 83.5t50.5 144.5v239q0 18 17 18q18 0 18 -18v-483 q0 -17 -18 -17q-17 0 -17 18v144q-17 -61 -63 -104.5t-103 -58.5q-27 -6 -54 -6q-92 0 -160.5 59t-68.5 161v287q0 18 17 18q18 0 18 -18z"/>
<glyph glyph-name="udieresis" horiz-adv-x="646" unicode="ü" d="M250 661q10 0 18 -7.5t8 -18.5q0 -13 -8 -20t-18 -7q-11 0 -19 7.5t-8 19.5q0 11 8 18.5t19 7.5zM418 661q10 0 18.5 -7.5t8.5 -18.5q0 -13 -8 -20t-19 -7q-10 0 -18 7.5t-8 19.5q0 11 8 18.5t18 7.5zM115 496v-287q0 -79 56.5 -132.5t133.5 -53.5q23 0 49 6 q76 19 124.5 83.5t50.5 144.5v239q0 18 17 18q18 0 18 -18v-483q0 -17 -18 -17q-17 0 -17 18v144q-17 -61 -63 -104.5t-103 -58.5q-27 -6 -54 -6q-92 0 -160.5 59t-68.5 161v287q0 18 17 18q18 0 18 -18z"/>
<glyph glyph-name="yacute" horiz-adv-x="559" unicode="ý" d="M270 601l77 96q6 7 14 7t13.5 -5t5.5 -12t-4 -12l-82 -90q-6 -7 -12 -7q-14 0 -14 15q0 6 2 8zM21 489q0 1 -0.5 2.5t-0.5 2.5q0 7 5.5 12.5t12.5 5.5q10 0 17 -11l227 -449l222 449q6 13 18 13q18 0 18 -16q0 -6 -2 -9l-339 -670q-7 -15 -19 -15q-15 0 -15 17q0 3 2 9 l93 188z"/>
<glyph glyph-name="thorn" horiz-adv-x="619" unicode="þ" d="M220 44q49 -22 95 -22h6q71 5 123 45q88 70 88 188v12q-2 48 -18 87q-25 60 -81 93.5t-121 33.5h-3q-83 -3 -135.5 -54.5t-57.5 -130.5v-87q6 -118 104 -165zM415 497q70 -27 110 -90t42 -141v-9q0 -87 -41 -153t-118 -98q-45 -19 -95 -19q-67 0 -124 34q-53 35 -73 89 v-281q0 -17 -18 -17q-17 0 -17 17v856q0 18 18 18q17 0 17 -18v-289q24 57 76 87.5t117 32.5h8q53 0 98 -19z"/>
<glyph glyph-name="OE" horiz-adv-x="1082" unicode="Œ" d="M317 614q-103 -16 -164.5 -96.5t-64.5 -189.5v-9q0 -125 84.5 -212.5t199.5 -87.5q126 0 205 85v429q-88 85 -210 85q-29 0 -50 -4zM610 300v-268h400q16 0 16 -16t-16 -16h-406q-12 0 -19.5 8t-7.5 19v38q-88 -77 -205 -77q-129 0 -223.5 96.5t-94.5 235.5v9 q4 120 73.5 209.5t184.5 107.5q36 4 54 4t54 -4q89 -15 157 -73v37q0 11 7.5 18.5t19.5 7.5h407q15 0 15 -15t-16 -15h-400v-276h380q16 0 16 -15t-16 -15h-380z"/>
<glyph glyph-name="oe" horiz-adv-x="1101" unicode="œ" d="M867 508q85 -23 134.5 -90.5t49.5 -164.5q0 -30 -31 -30h-451q8 -67 52 -119q63 -75 170 -77h5q84 0 152 51q7 5 13 5q7 0 12 -4.5t5 -11.5t-7 -14q-64 -60 -172 -60h-5q-133 2 -201 89q-33 42 -43 94q-12 -58 -43 -94q-75 -89 -199 -89t-199 89q-61 75 -61 172 q0 3 0.5 9.5t0.5 9.5q7 83 55.5 148t127.5 87q34 9 76 9q38 0 75 -9q58 -17 103.5 -63t64.5 -104q17 60 61 105t104 62q34 9 76 9q38 0 75 -9zM728 475q-73 -20 -116 -81t-44 -138h449q-2 83 -44 141.5t-117 78.5q-28 7 -62 7q-38 0 -66 -8zM372 474q-32 8 -65 8 q-31 0 -63 -8q-73 -20 -116 -83t-43 -139q0 -87 52 -148q64 -77 171 -77q109 0 173 77q52 62 52 146q0 77 -43.5 140.5t-117.5 83.5z"/>
<glyph glyph-name="Scaron" horiz-adv-x="646" unicode="Š" d="M252 794l82 -73l80 72q7 8 15 8q13 0 13 -12q0 -9 -9 -16l-81 -77q-9 -8 -19 -8q-9 0 -17 8l-86 78q-7 6 -7 14q0 12 13 12q7 0 16 -6zM34 134q-1 2 -1 5q0 15 16 15q12 0 15 -12q11 -39 49.5 -66.5t79 -39t83.5 -15.5q22 -3 47 -3q41 0 81.5 7.5t80.5 24.5t65 49.5 t25 76.5q0 46 -29 74t-75.5 38t-103 14.5t-113 10.5t-103 19.5t-75.5 47.5t-29 89q0 68 53 109t128 57q43 8 84 8q91 0 168.5 -28t103.5 -98q2 -6 2 -9q0 -14 -14 -14q-12 0 -16 12q-39 107 -243 107q-4 0 -12 -0.5t-12 -0.5q-66 -5 -125 -31.5t-77 -78.5q-7 -14 -7 -34 q0 -46 29 -74t75.5 -38.5t103 -15.5t113 -11t103 -19.5t75.5 -46.5t29 -86q0 -52 -27 -90.5t-71 -58.5t-90.5 -29t-96.5 -9q-43 0 -84.5 6.5t-85 21.5t-76 45t-43.5 71z"/>
<glyph glyph-name="scaron" horiz-adv-x="532" unicode="š" d="M191 663l82 -73l80 72q7 8 15 8q13 0 13 -12q0 -8 -9 -16l-81 -77q-9 -8 -19 -8q-9 0 -17 8l-86 78q-7 6 -7 14q0 12 13 12q7 0 16 -6zM38 110q-1 3 -1 7q0 16 16 16t17 -17q9 -44 66.5 -67.5t129.5 -23.5q37 0 76.5 9t75.5 37t36 70q0 36 -22.5 57t-59 28.5t-80 11 t-87 8.5t-80 16t-59 38.5t-22.5 71.5q0 67 67 106.5t145 39.5q177 0 216 -102q1 -3 1 -7q0 -19 -17 -19q-12 0 -17 13q-31 82 -183 82q-40 0 -78.5 -10.5t-69 -37.5t-30.5 -65q0 -39 30.5 -60.5t76 -26t99 -10.5t99 -14.5t76 -38.5t30.5 -81q0 -42 -22.5 -73t-59 -46.5 t-71.5 -22t-70 -6.5t-68.5 5t-68.5 17t-59.5 36.5t-31.5 58.5z"/>
<glyph glyph-name="Ydieresis" horiz-adv-x="617" unicode="Ÿ" d="M291 259l-269 358q-6 7 -6 14q0 14 15 14q9 0 16 -8l261 -350l260 350q7 8 16 8q15 0 15 -14q0 -7 -6 -14l-268 -358v-244q0 -19 -17 -19t-17 19v244zM225 724q10 0 18 -7.5t8 -18.5q0 -13 -8 -20t-18 -7q-11 0 -19 7.5t-8 19.5q0 11 8 18.5t19 7.5zM393 724 q10 0 18.5 -7.5t8.5 -18.5q0 -13 -8 -20t-19 -7q-10 0 -18 7.5t-8 19.5q0 11 8 18.5t18 7.5z"/>
<glyph glyph-name="circumflex" horiz-adv-x="333" unicode="ˆ" d="M235 590l-82 73l-80 -72q-7 -8 -15 -8q-13 0 -13 12q0 9 9 16l81 77q9 8 19 8q9 0 17 -8l86 -78q7 -6 7 -14q0 -12 -13 -12q-7 0 -16 6z"/>
<glyph glyph-name="tilde" horiz-adv-x="364" unicode="˜" d="M59 660q27 42 64 42q23 0 68 -22t62 -22h5q20 2 33 29q3 9 13 9q13 0 13 -12q0 -6 -4 -11q-21 -44 -58 -44q-21 0 -63.5 19.5t-60.5 21.5q-1 0 -4 0.5t-5 0.5q-27 0 -42 -28q-4 -6 -12 -6q-13 0 -13 12q0 6 4 11z"/>
<glyph glyph-name="endash" horiz-adv-x="406" unicode="–" d="M340 284h-276q-19 0 -19 17q0 7 5 12.5t14 5.5h276q18 0 18 -17q0 -18 -18 -18z"/>
<glyph glyph-name="emdash" horiz-adv-x="540" unicode="—" d="M479 285h-415q-19 0 -19 16q0 7 5 12.5t14 5.5h415q18 0 18 -17t-18 -17z"/>
<glyph glyph-name="quoteleft" horiz-adv-x="145" unicode="‘" d="M40 540l48 102q4 9 14 9q6 0 11.5 -4.5t5.5 -10.5q0 -2 -2 -8l-45 -101q-7 -15 -19 -15q-16 0 -16 17q0 5 3 11z"/>
<glyph glyph-name="quotesinglbase" horiz-adv-x="147" unicode="‚" d="M95 7l-48 -102q-4 -9 -14 -9q-6 0 -11.5 4.5t-5.5 10.5q0 2 2 8l45 101q7 15 19 15q16 0 16 -17q0 -5 -3 -11z"/>
<glyph glyph-name="quotedblleft" horiz-adv-x="230" unicode="“" d="M31 534l48 102q4 9 14 9q6 0 11.5 -4.5t5.5 -10.5q0 -2 -2 -8l-45 -101q-7 -15 -19 -15q-16 0 -16 17q0 5 3 11zM129 534l48 102q4 9 14 9q6 0 11.5 -4.5t5.5 -10.5q0 -2 -2 -8l-45 -101q-7 -15 -19 -15q-16 0 -16 17q0 5 3 11z"/>
<glyph glyph-name="quotedblright" horiz-adv-x="224" unicode="”" d="M203 618l-48 -102q-4 -9 -14 -9q-6 0 -11.5 4.5t-5.5 10.5q0 2 2 8l45 101q7 15 19 15q16 0 16 -17q0 -5 -3 -11zM105 618l-48 -102q-4 -9 -14 -9q-6 0 -11.5 4.5t-5.5 10.5q0 2 2 8l45 101q7 15 19 15q16 0 16 -17q0 -5 -3 -11z"/>
<glyph glyph-name="ellipsis" horiz-adv-x="376" unicode="…" d="M189 51q25 0 25 -25q0 -11 -7 -18.5t-18 -7.5t-18.5 7.5t-7.5 18.5t7.5 18t18.5 7zM309 51q11 0 18.5 -7t7.5 -18t-7.5 -18.5t-18.5 -7.5t-18 7.5t-7 18.5q0 25 25 25zM69 51q25 0 25 -25q0 -11 -7 -18.5t-18 -7.5t-18.5 7.5t-7.5 18.5t7.5 18t18.5 7z"/>
<glyph glyph-name="perthousand" horiz-adv-x="917" unicode="‰" d="M847 139q0 42 -27.5 74t-70.5 32q-42 0 -71 -31.5t-29 -74.5q0 -42 27.5 -76t72.5 -34q43 0 69.5 30.5t28.5 79.5zM749 277q54 0 91.5 -39.5t37.5 -98.5q0 -55 -36 -98.5t-93 -43.5q-55 0 -92 39.5t-37 102.5q0 55 36 96.5t93 41.5zM545 139q0 42 -27.5 74t-70.5 32 q-42 0 -71 -31.5t-29 -74.5q0 -42 27.5 -76t72.5 -34q43 0 69.5 30.5t28.5 79.5zM447 277q54 0 91.5 -39.5t37.5 -98.5q0 -55 -36 -98.5t-93 -43.5q-55 0 -92 39.5t-37 102.5q0 55 36 96.5t93 41.5zM277 508q0 42 -27.5 74t-70.5 32q-42 0 -71 -31.5t-29 -74.5 q0 -42 27.5 -76t72.5 -34q43 0 69.5 30.5t28.5 79.5zM179 646q54 0 91.5 -39.5t37.5 -98.5q0 -55 -36 -98.5t-93 -43.5q-55 0 -92 39.5t-37 102.5q0 55 36 96.5t93 41.5zM546 636l-449 -635q-4 -7 -13 -7q-7 0 -12 4.5t-5 11.5q0 6 4 11l449 635q6 7 13 7t12 -4.5t5 -11.5 q0 -3 -4 -11z"/>
<glyph glyph-name="guilsinglleft" horiz-adv-x="316" unicode="‹" d="M263 432l-179 -173l178 -172q7 -7 7 -14q0 -17 -18 -17q-7 0 -13 6l-186 180q-8 7 -8 17t10 20l186 179q5 5 11 5q18 0 18 -18q0 -5 -6 -13z"/>
<glyph glyph-name="guilsinglright" horiz-adv-x="302" unicode="›" d="M229 251l-179 173q-6 8 -6 13q0 18 18 18q6 0 11 -5l186 -179q10 -10 10 -20t-8 -17l-186 -180q-6 -6 -13 -6q-18 0 -18 17q0 7 7 14z"/>
<glyph glyph-name="Euro" horiz-adv-x="676" unicode="€" d="M10 273h56q-3 25 -3 48q0 24 5 54h-58q-15 0 -15 14t15 14h61q22 93 88.5 159t162.5 81q23 4 52 4q145 0 232 -94q5 -5 5 -13q0 -15 -15 -15q-9 0 -14 6q-76 83 -205 83q-18 0 -50 -4q-84 -13 -142.5 -69.5t-80.5 -137.5h174q17 0 17 -14t-17 -14h-181q-4 -25 -4 -56 q0 -23 3 -46h182q16 0 16 -14t-16 -14h-175q25 -97 105 -159t179 -62q69 0 134 32q56 28 94 77q5 8 14 8q6 0 11 -4.5t5 -11.5q0 -6 -4 -11q-39 -55 -106 -88q-72 -36 -151 -36q-113 0 -201.5 71t-113.5 184h-59q-14 0 -14 14t14 14z"/>
<glyph glyph-name="trademark" horiz-adv-x="634" unicode="™" d="M432 470l101 159q6 9 15 9q16 0 16 -16v-240q0 -14 -16 -14q-17 0 -17 14v187l-84 -133q-6 -11 -16 -11q-9 0 -15 9l-84 133v-185q0 -16 -16 -16q-6 0 -11.5 4.5t-5.5 11.5v240q0 16 15 16q10 0 16 -9zM32 637h218q14 0 14 -15q0 -16 -14 -16h-93v-225q0 -16 -16 -16 q-17 0 -17 16v225h-92q-12 0 -12 16q0 15 12 15z"/>
</font>
</defs>
</svg>
